<svg width="171" height="34" viewBox="0 0 171 34" fill="none" xmlns="http://www.w3.org/2000/svg">
<path d="M16.8951 26.1904C21.982 24.0683 24.3854 18.2244 22.2634 13.1375C20.1413 8.05068 14.2974 5.64724 9.21052 7.76928C4.12368 9.89132 1.72026 15.7353 3.8423 20.8221C5.96434 25.909 11.8083 28.3124 16.8951 26.1904Z" fill="#FF9D00"/>
<path d="M121.859 0C112.489 0 104.889 7.6 104.889 16.97C104.889 26.34 112.489 33.94 121.859 33.94C131.229 33.94 138.829 26.34 138.829 16.97C138.829 7.6 131.229 0 121.859 0ZM121.859 25.07C117.389 25.07 113.769 21.45 113.769 16.98C113.769 12.51 117.389 8.89 121.859 8.89C126.329 8.89 129.949 12.51 129.949 16.98C129.949 21.45 126.329 25.07 121.859 25.07Z" fill="#FF9D00"/>
<path d="M160.918 7.12C155.478 7.12 151.068 11.53 151.068 16.97C151.068 22.41 155.478 26.82 160.918 26.82C166.358 26.82 170.768 22.41 170.768 16.97C170.768 11.53 166.358 7.12 160.918 7.12ZM160.918 19.63C159.448 19.63 158.258 18.44 158.258 16.97C158.258 15.5 159.448 14.31 160.918 14.31C162.388 14.31 163.578 15.5 163.578 16.97C163.578 18.44 162.388 19.63 160.918 19.63Z" fill="#114A82"/>
<path d="M84.1487 8.23999C79.3187 8.23999 75.4087 12.15 75.4087 16.98C75.4087 21.81 79.3187 25.72 84.1487 25.72C88.9787 25.72 92.8887 21.81 92.8887 16.98C92.8887 12.15 88.9787 8.23999 84.1487 8.23999ZM84.1487 21.14C81.8487 21.14 79.9787 19.27 79.9787 16.97C79.9787 14.67 81.8487 12.8 84.1487 12.8C86.4487 12.8 88.3187 14.67 88.3187 16.97C88.3187 19.27 86.4487 21.14 84.1487 21.14Z" fill="#FFC200"/>
</svg>
