<svg width="100%" height="100%" viewBox="0 0 521 292" fill="none" xmlns="http://www.w3.org/2000/svg">
<path d="M521 117.065V100.374C521.001 98.7975 520.692 97.2363 520.089 95.7796C519.486 94.3229 518.602 92.9994 517.487 91.8847C516.373 90.7699 515.049 89.8859 513.592 89.2832C512.136 88.6805 510.575 88.3709 508.998 88.3721H466.643C465.067 88.3721 463.506 88.0616 462.05 87.4585C460.594 86.8553 459.271 85.9713 458.156 84.8568C457.042 83.7423 456.158 82.4192 455.554 80.9631C454.951 79.507 454.641 77.9463 454.641 76.3702V59.6794C454.641 56.4963 455.905 53.4436 458.156 51.1928C460.407 48.942 463.46 47.6775 466.643 47.6775H467.982C469.559 47.6775 471.119 47.3671 472.575 46.764C474.031 46.1608 475.355 45.2767 476.469 44.1623C477.584 43.0478 478.468 41.7247 479.071 40.2686C479.674 38.8124 479.984 37.2518 479.984 35.6756V18.9849C479.984 17.4088 479.674 15.8481 479.071 14.392C478.468 12.9359 477.584 11.6128 476.469 10.4983C475.355 9.38382 474.031 8.49977 472.575 7.89662C471.119 7.29347 469.559 6.98303 467.982 6.98303H80.8477C77.6646 6.98303 74.6118 8.24751 72.361 10.4983C70.1103 12.7491 68.8458 15.8018 68.8458 18.9849V35.6756C68.8458 38.8587 70.1103 41.9115 72.361 44.1623C74.6118 46.4131 77.6646 47.6775 80.8477 47.6775C84.0308 47.6775 87.0835 48.942 89.3343 51.1928C91.5851 53.4436 92.8496 56.4963 92.8496 59.6794V76.3702C92.8496 79.5533 91.5851 82.606 89.3343 84.8568C87.0835 87.1076 84.0308 88.3721 80.8477 88.3721H34.4366C32.8605 88.3721 31.2999 88.6825 29.8437 89.2857C28.3876 89.8888 27.0645 90.7729 25.95 91.8873C24.8355 93.0018 23.9515 94.3249 23.3483 95.781C22.7452 97.2372 22.4348 98.7979 22.4348 100.374V117.065C22.4348 118.641 22.7452 120.201 23.3483 121.658C23.9515 123.114 24.8355 124.437 25.95 125.551C27.0645 126.666 28.3876 127.55 29.8437 128.153C31.2999 128.756 32.8605 129.067 34.4366 129.067H52.6505C55.8336 129.067 58.8864 130.331 61.1372 132.582C63.388 134.833 64.6524 137.885 64.6524 141.068V157.759C64.6524 160.942 63.388 163.995 61.1372 166.246C58.8864 168.497 55.8336 169.761 52.6505 169.761C51.0741 169.76 49.5129 170.07 48.0562 170.672C46.5995 171.275 45.2759 172.159 44.1612 173.274C43.0465 174.388 42.1625 175.712 41.5598 177.169C40.9571 178.625 40.6474 180.187 40.6486 181.763V198.454C40.6486 201.637 41.9131 204.69 44.1639 206.94C46.4147 209.191 49.4674 210.456 52.6505 210.456H55.284C58.4607 210.468 61.5031 211.739 63.7442 213.99C65.9854 216.242 67.2425 219.29 67.24 222.467V239.157C67.24 242.341 65.9755 245.393 63.7247 247.644C61.4739 249.895 58.4212 251.159 55.2381 251.159H12.0019C10.4262 251.158 8.86575 251.467 7.40967 252.07C5.95358 252.672 4.63043 253.555 3.51583 254.669C2.40123 255.782 1.51704 257.105 0.913772 258.561C0.310507 260.016 -4.61197e-07 261.576 0 263.152V279.843C0 283.026 1.26448 286.079 3.51528 288.329C5.76607 290.58 8.8188 291.845 12.0019 291.845H474.461C477.644 291.845 480.696 290.58 482.947 288.329C485.198 286.079 486.462 283.026 486.462 279.843V263.152C486.462 259.969 485.198 256.916 482.947 254.665C480.696 252.415 477.644 251.15 474.461 251.15H464.018C460.835 251.15 457.783 249.886 455.532 247.635C453.281 245.384 452.017 242.331 452.017 239.148V222.467C452.015 220.89 452.325 219.329 452.928 217.872C453.53 216.416 454.414 215.092 455.529 213.977C456.644 212.863 457.967 211.979 459.424 211.376C460.881 210.773 462.442 210.464 464.018 210.465H488.554C490.131 210.465 491.691 210.154 493.147 209.551C494.604 208.948 495.927 208.064 497.041 206.95C498.156 205.835 499.04 204.512 499.643 203.056C500.246 201.6 500.556 200.039 500.556 198.463V181.763C500.556 180.187 500.246 178.626 499.643 177.17C499.04 175.714 498.156 174.391 497.041 173.276C495.927 172.162 494.604 171.278 493.147 170.675C491.691 170.072 490.131 169.761 488.554 169.761H481.113C477.93 169.761 474.877 168.497 472.626 166.246C470.376 163.995 469.111 160.942 469.111 157.759V141.068C469.11 139.492 469.419 137.931 470.022 136.474C470.625 135.017 471.509 133.694 472.624 132.579C473.738 131.464 475.062 130.58 476.519 129.978C477.975 129.375 479.536 129.065 481.113 129.067H508.998C510.574 129.067 512.135 128.756 513.591 128.153C515.047 127.55 516.37 126.666 517.485 125.551C518.599 124.437 519.483 123.114 520.086 121.658C520.69 120.201 521 118.641 521 117.065Z" fill="#DBE5EC"/>
<path d="M380.915 127.515H410.561" stroke="#B9CFDB" stroke-width="3" stroke-miterlimit="10" stroke-linecap="round"/>
<path d="M380.915 136.067H410.561" stroke="#B9CFDB" stroke-width="3" stroke-miterlimit="10" stroke-linecap="round"/>
<path d="M380.915 144.61H410.561" stroke="#B9CFDB" stroke-width="3" stroke-miterlimit="10" stroke-linecap="round"/>
<path d="M331.612 54.9996H94.8411C88.2532 54.9996 82.9126 60.3402 82.9126 66.9281V245.232C82.9126 251.82 88.2532 257.16 94.8411 257.16H331.612C338.2 257.16 343.541 251.82 343.541 245.232V66.9281C343.541 60.3402 338.2 54.9996 331.612 54.9996Z" fill="#0A65A3"/>
<path d="M316.123 73.9934H110.338C105.777 73.9934 102.08 77.6907 102.08 82.2516V229.908C102.08 234.469 105.777 238.166 110.338 238.166H316.123C320.684 238.166 324.381 234.469 324.381 229.908V82.2516C324.381 77.6907 320.684 73.9934 316.123 73.9934Z" fill="#408AB5"/>
<path d="M182.708 96.9507H134.076C130.954 96.9507 128.424 99.4813 128.424 102.603V135.562C128.424 138.684 130.954 141.215 134.076 141.215H182.708C185.829 141.215 188.36 138.684 188.36 135.562V102.603C188.36 99.4813 185.829 96.9507 182.708 96.9507Z" fill="#DBE5EC"/>
<path d="M295.846 172.927H247.214C244.093 172.927 241.562 175.457 241.562 178.579V211.538C241.562 214.66 244.093 217.19 247.214 217.19H295.846C298.968 217.19 301.498 214.66 301.498 211.538V178.579C301.498 175.457 298.968 172.927 295.846 172.927Z" fill="#DBE5EC"/>
<path d="M248.076 143.555V153.593C248.076 155.749 247.22 157.817 245.695 159.341C244.17 160.866 242.103 161.723 239.946 161.723H150.831C148.675 161.723 146.607 162.579 145.083 164.104C143.558 165.628 142.702 167.696 142.702 169.852V169.852C142.702 172.008 143.558 174.076 145.083 175.601C146.607 177.126 148.675 177.982 150.831 177.982H190.764C191.832 177.981 192.89 178.19 193.877 178.598C194.864 179.007 195.76 179.605 196.516 180.36C197.271 181.116 197.87 182.012 198.278 182.999C198.686 183.986 198.895 185.044 198.894 186.112V186.956C198.894 189.112 199.751 191.18 201.275 192.705C202.8 194.229 204.868 195.086 207.024 195.086H241.598" stroke="#DBE5EC" stroke-width="2" stroke-miterlimit="10"/>
<path d="M343.541 158.503H365.104C366.172 158.502 367.23 158.711 368.217 159.119C369.203 159.527 370.1 160.126 370.855 160.881C371.611 161.636 372.209 162.533 372.617 163.52C373.026 164.507 373.235 165.565 373.234 166.633V167.477C373.234 168.544 373.444 169.601 373.853 170.588C374.261 171.574 374.86 172.47 375.615 173.225C376.37 173.98 377.266 174.579 378.252 174.988C379.239 175.396 380.296 175.606 381.364 175.606H397.586" stroke="#408AB5" stroke-width="2" stroke-miterlimit="10"/>
<path d="M188.36 116.44H239.947C241.014 116.439 242.072 116.649 243.059 117.057C244.046 117.465 244.943 118.064 245.698 118.819C246.453 119.574 247.052 120.471 247.46 121.458C247.868 122.445 248.077 123.502 248.076 124.57V131.966" stroke="#DBE5EC" stroke-width="2" stroke-miterlimit="10"/>
<path d="M241.562 131.967H254.353" stroke="#DBE5EC" stroke-width="2" stroke-miterlimit="10"/>
<path d="M241.562 143.527H254.353" stroke="#DBE5EC" stroke-width="2" stroke-miterlimit="10"/>
<path d="M409.927 179.386H419.075" stroke="#408AB5" stroke-width="4" stroke-miterlimit="10"/>
<path d="M409.927 170.209H419.075" stroke="#408AB5" stroke-width="4" stroke-miterlimit="10"/>
<path d="M478.644 138.683H427.7C426.687 138.683 425.865 139.505 425.865 140.519V207.538C425.865 208.552 426.687 209.373 427.7 209.373H478.644C479.658 209.373 480.479 208.552 480.479 207.538V140.519C480.479 139.505 479.658 138.683 478.644 138.683Z" fill="#F9B72B"/>
<path d="M452.293 183.827C458.495 183.827 463.524 178.799 463.524 172.596C463.524 166.393 458.495 161.365 452.293 161.365C446.09 161.365 441.062 166.393 441.062 172.596C441.062 178.799 446.09 183.827 452.293 183.827Z" fill="#408AB5"/>
<path d="M457.495 162.641C459.274 164.589 460.31 167.101 460.422 169.737C460.533 172.372 459.712 174.963 458.103 177.054C456.494 179.144 454.201 180.601 451.624 181.169C449.048 181.737 446.354 181.378 444.016 180.157C445.121 181.365 446.478 182.316 447.99 182.944C449.503 183.572 451.134 183.861 452.77 183.791C454.406 183.721 456.007 183.294 457.46 182.54C458.914 181.786 460.185 180.723 461.184 179.426C462.183 178.129 462.886 176.628 463.243 175.03C463.601 173.432 463.605 171.776 463.254 170.176C462.903 168.577 462.207 167.073 461.214 165.772C460.22 164.47 458.954 163.401 457.504 162.641H457.495Z" fill="#0A65A3"/>
<path d="M258.665 291.845H167.825C167.457 291.845 167.097 291.735 166.792 291.528C166.487 291.322 166.252 291.028 166.116 290.685C165.981 290.343 165.951 289.968 166.032 289.608C166.112 289.249 166.299 288.922 166.568 288.67L168.963 286.413C172.943 282.651 176.113 278.116 178.279 273.086C180.445 268.056 181.562 262.637 181.561 257.161H244.902C244.903 262.638 246.021 268.057 248.189 273.087C250.357 278.117 253.528 282.651 257.509 286.413L259.904 288.67C260.172 288.921 260.358 289.246 260.44 289.604C260.521 289.961 260.493 290.335 260.36 290.677C260.226 291.019 259.994 291.312 259.692 291.521C259.39 291.729 259.032 291.842 258.665 291.845Z" fill="#408AB5"/>
<path d="M406.083 164.448H409.927V185.148H406.083C404.72 185.149 403.37 184.879 402.111 184.356C400.853 183.833 399.709 183.067 398.748 182.101C397.786 181.135 397.025 179.988 396.507 178.727C395.99 177.466 395.726 176.115 395.733 174.752C395.733 172.007 396.823 169.375 398.764 167.434C400.705 165.493 403.338 164.402 406.083 164.402V164.448Z" fill="#408AB5"/>
<path d="M456.954 175.038C458.302 175.038 459.395 173.945 459.395 172.597C459.395 171.249 458.302 170.156 456.954 170.156C455.606 170.156 454.513 171.249 454.513 172.597C454.513 173.945 455.606 175.038 456.954 175.038Z" fill="#DBE5EC"/>
<path d="M447.64 175.038C448.988 175.038 450.081 173.945 450.081 172.597C450.081 171.249 448.988 170.156 447.64 170.156C446.292 170.156 445.199 171.249 445.199 172.597C445.199 173.945 446.292 175.038 447.64 175.038Z" fill="#DBE5EC"/>
<path d="M15.8838 244.369H45.5215" stroke="#B9CFDB" stroke-width="3" stroke-miterlimit="10" stroke-linecap="round"/>
<path d="M15.8838 252.911H45.5215" stroke="#B9CFDB" stroke-width="3" stroke-miterlimit="10" stroke-linecap="round"/>
<path d="M15.8838 261.454H45.5215" stroke="#B9CFDB" stroke-width="3" stroke-miterlimit="10" stroke-linecap="round"/>
<path d="M245.681 19.2415H275.319" stroke="#B9CFDB" stroke-width="3" stroke-miterlimit="10" stroke-linecap="round"/>
<path d="M245.681 27.7839H275.319" stroke="#B9CFDB" stroke-width="3" stroke-miterlimit="10" stroke-linecap="round"/>
<path d="M245.681 36.3265H275.319" stroke="#B9CFDB" stroke-width="3" stroke-miterlimit="10" stroke-linecap="round"/>
<path d="M60.6056 53.668C68.9317 53.668 75.6814 46.9184 75.6814 38.5923C75.6814 30.2661 68.9317 23.5165 60.6056 23.5165C52.2794 23.5165 45.5298 30.2661 45.5298 38.5923C45.5298 46.9184 52.2794 53.668 60.6056 53.668Z" fill="#B9CFDB"/>
<path d="M61.2124 15.7089C65.5503 15.7089 69.0668 12.1923 69.0668 7.85445C69.0668 3.51656 65.5503 0 61.2124 0C56.8745 0 53.3579 3.51656 53.3579 7.85445C53.3579 12.1923 56.8745 15.7089 61.2124 15.7089Z" fill="#B9CFDB"/>
<path d="M113.515 19.2425C117.27 19.2425 120.314 16.1984 120.314 12.4433C120.314 8.68817 117.27 5.64404 113.515 5.64404C109.759 5.64404 106.715 8.68817 106.715 12.4433C106.715 16.1984 109.759 19.2425 113.515 19.2425Z" fill="#B9CFDB"/>
<path d="M88.7853 10.3685C91.2887 10.3685 93.3181 8.3391 93.3181 5.83569C93.3181 3.33227 91.2887 1.30286 88.7853 1.30286C86.2819 1.30286 84.2524 3.33227 84.2524 5.83569C84.2524 8.3391 86.2819 10.3685 88.7853 10.3685Z" fill="#B9CFDB"/>
<path d="M94.0517 41.4202C100.047 41.4202 104.907 36.5603 104.907 30.5653C104.907 24.5702 100.047 19.7103 94.0517 19.7103C88.0567 19.7103 83.1968 24.5702 83.1968 30.5653C83.1968 36.5603 88.0567 41.4202 94.0517 41.4202Z" fill="#B9CFDB"/>
<path d="M436.648 96.3469C444.974 96.3469 451.723 89.5972 451.723 81.2711C451.723 72.945 444.974 66.1953 436.648 66.1953C428.321 66.1953 421.572 72.945 421.572 81.2711C421.572 89.5972 428.321 96.3469 436.648 96.3469Z" fill="#B9CFDB"/>
<path d="M404.743 96.5567C409.081 96.5567 412.598 93.0401 412.598 88.7022C412.598 84.3643 409.081 80.8478 404.743 80.8478C400.405 80.8478 396.889 84.3643 396.889 88.7022C396.889 93.0401 400.405 96.5567 404.743 96.5567Z" fill="#B9CFDB"/>
<path d="M404.744 67.7726C410.739 67.7726 415.599 62.9127 415.599 56.9177C415.599 50.9227 410.739 46.0627 404.744 46.0627C398.749 46.0627 393.889 50.9227 393.889 56.9177C393.889 62.9127 398.749 67.7726 404.744 67.7726Z" fill="#B9CFDB"/>
<path d="M441.061 283.311C449.387 283.311 456.136 276.561 456.136 268.235C456.136 259.909 449.387 253.159 441.061 253.159C432.735 253.159 425.985 259.909 425.985 268.235C425.985 276.561 432.735 283.311 441.061 283.311Z" fill="#B9CFDB"/>
<path d="M411.166 290.111C414.922 290.111 417.966 287.067 417.966 283.312C417.966 279.557 414.922 276.513 411.166 276.513C407.411 276.513 404.367 279.557 404.367 283.312C404.367 287.067 407.411 290.111 411.166 290.111Z" fill="#B9CFDB"/>
<path d="M402.835 268.226C408.83 268.226 413.69 263.366 413.69 257.371C413.69 251.376 408.83 246.516 402.835 246.516C396.84 246.516 391.98 251.376 391.98 257.371C391.98 263.366 396.84 268.226 402.835 268.226Z" fill="#B9CFDB"/>
<path d="M343.541 92.5561C361.633 92.5561 376.299 77.8901 376.299 59.7986C376.299 41.7072 361.633 27.0411 343.541 27.0411C325.45 27.0411 310.784 41.7072 310.784 59.7986C310.784 77.8901 325.45 92.5561 343.541 92.5561Z" fill="#F9B62B"/>
<path d="M345.247 41.548C345.247 40.6054 344.483 39.8413 343.541 39.8413C342.598 39.8413 341.834 40.6054 341.834 41.548V68.433C341.834 69.3756 342.598 70.1397 343.541 70.1397C344.483 70.1397 345.247 69.3756 345.247 68.433V41.548Z" fill="#408AB5"/>
<path d="M343.542 81.27C347.662 81.27 347.671 74.8469 343.542 74.8469C339.413 74.8469 339.422 81.27 343.542 81.27Z" fill="#408AB5"/>
</svg>
