<svg width="100%" height="100%" viewBox="0 0 406 306" fill="none" xmlns="http://www.w3.org/2000/svg">
<path opacity="0.45" d="M207.984 283.702C263.278 283.702 308.103 279.071 308.103 273.359C308.103 267.646 263.278 263.016 207.984 263.016C152.689 263.016 107.864 267.646 107.864 273.359C107.864 279.071 152.689 283.702 207.984 283.702Z" fill="#E6E6E6"/>
<path d="M174.58 167.646C174.58 167.646 143.399 182.333 147.226 195.051C151.052 207.769 170.52 204.329 170.52 204.329" stroke="#24285B" stroke-width="8.12" stroke-linecap="round" stroke-linejoin="round"/>
<path d="M161.07 119.302C161.07 119.302 131.341 93.5109 121.587 56.4228" stroke="#24285B" stroke-width="8.12" stroke-linecap="round" stroke-linejoin="round"/>
<path d="M246.077 139.429C246.077 139.429 277.298 139.369 296.4 135.552C315.503 131.736 310.976 88.1923 310.976 88.1923" stroke="#24285B" stroke-width="8.12" stroke-linecap="round" stroke-linejoin="round"/>
<path d="M128.905 52.6774C128.905 52.6774 140.466 46.9122 136.71 40.8425C132.955 34.7728 127.788 36.9348 127.788 36.9348C127.788 36.9348 127.251 22.3695 115.71 26.8355C104.169 31.3015 104.139 48.2622 111.132 55.6818C118.126 63.1015 128.905 52.6774 128.905 52.6774Z" fill="#FFD200"/>
<path d="M215.393 186.231C215.393 186.231 212.582 218.356 199.569 237.174" stroke="#24285B" stroke-width="8.12" stroke-linecap="round" stroke-linejoin="round"/>
<path d="M218.428 220.325L198.098 213.464L185.004 252.247L210.582 274.293L207.405 245.72L218.428 220.325Z" fill="#FFD200"/>
<path d="M205.04 187.865C239.913 187.865 268.183 159.595 268.183 124.722C268.183 89.8491 239.913 61.5789 205.04 61.5789C170.167 61.5789 141.897 89.8491 141.897 124.722C141.897 159.595 170.167 187.865 205.04 187.865Z" fill="#1B8EBF"/>
<path opacity="0.09" d="M257.81 90.273C262.924 104.843 262.521 120.782 256.678 135.075C250.834 149.368 239.954 161.024 226.097 167.838C212.24 174.651 196.367 176.15 181.479 172.05C166.592 167.951 153.723 158.537 145.307 145.591C148.255 154.024 152.959 161.736 159.108 168.218C165.257 174.699 172.712 179.801 180.979 183.188C189.247 186.574 198.138 188.168 207.067 187.863C215.996 187.559 224.759 185.363 232.776 181.421C240.793 177.478 247.883 171.88 253.576 164.995C259.269 158.11 263.437 150.095 265.803 141.48C268.169 132.865 268.68 123.846 267.302 115.019C265.924 106.191 262.689 97.7571 257.81 90.273Z" fill="black"/>
<path d="M235.368 143.347C235.368 143.347 229.755 169.819 197.712 165.18C165.668 160.541 168.49 131.685 168.49 131.685L235.368 143.347Z" fill="#24285B"/>
<path opacity="0.36" d="M181.143 124.526C181.527 121.886 177.791 119.156 172.799 118.43C167.806 117.703 163.447 119.255 163.063 121.895C162.679 124.536 166.415 127.265 171.407 127.992C176.4 128.718 180.758 127.167 181.143 124.526Z" fill="white"/>
<path opacity="0.36" d="M246.897 134.079C247.281 131.439 243.545 128.709 238.553 127.983C233.56 127.256 229.201 128.808 228.817 131.448C228.433 134.089 232.169 136.818 237.161 137.545C242.154 138.271 246.512 136.72 246.897 134.079Z" fill="white"/>
<path d="M114.797 69.0595C114.797 69.0595 144.13 67.1107 138.832 56.7577C133.533 46.4047 120.349 53.7939 112.056 55.4281C103.763 57.0622 103.601 68.5825 114.797 69.0595Z" fill="#FFD200"/>
<path opacity="0.44" d="M114.797 69.0595C114.797 69.0595 144.13 67.1107 138.832 56.7577C133.533 46.4047 120.349 53.7939 112.056 55.4281C103.763 57.0622 103.601 68.5825 114.797 69.0595Z" fill="white"/>
<path d="M302.947 88.04C302.947 88.04 290.513 84.5484 293.071 77.89C295.629 71.2316 301.11 72.3887 301.11 72.3887C301.11 72.3887 298.917 57.9757 311.128 60.2087C323.338 62.4417 326.495 79.0979 321.004 87.6949C315.513 96.292 302.947 88.04 302.947 88.04Z" fill="#FFD200"/>
<path d="M319.877 101.479C319.877 101.479 290.696 105.041 293.964 93.8763C297.233 82.7113 311.575 87.5122 320.019 87.5731C328.464 87.634 330.788 98.9107 319.877 101.479Z" fill="#FFD200"/>
<path opacity="0.44" d="M319.877 101.479C319.877 101.479 290.696 105.041 293.964 93.8763C297.233 82.7113 311.575 87.5122 320.019 87.5731C328.464 87.634 330.788 98.9107 319.877 101.479Z" fill="white"/>
<path opacity="0.58" d="M265.859 260.417C265.859 260.417 256.074 257.738 253.943 248.633C253.943 248.633 269.107 245.588 269.543 261.219L265.859 260.417Z" fill="#1B8EBF"/>
<path opacity="0.73" d="M267.057 259.443C267.057 259.443 260.226 248.633 266.245 238.524C266.245 238.524 277.775 245.842 272.649 259.463L267.057 259.443Z" fill="#1B8EBF"/>
<path d="M268.823 259.453C268.823 259.453 272.436 248.034 283.358 245.872C283.358 245.872 285.388 253.282 276.253 259.484L268.823 259.453Z" fill="#1B8EBF"/>
<path d="M261.728 259.189L263.707 272.77L276.202 272.821L278.049 259.26L261.728 259.189Z" fill="#24285B"/>
<path d="M180.102 112.664C180.102 112.664 183.147 91.6331 191.662 92.6075C200.178 93.5819 196.737 115.09 196.737 115.09" stroke="#24285B" stroke-width="3.045" stroke-linecap="round" stroke-linejoin="round"/>
<path d="M214.906 117.729C214.906 117.729 217.951 96.6979 226.467 97.6723C234.983 98.6467 231.542 120.155 231.542 120.155" stroke="#24285B" stroke-width="3.045" stroke-linecap="round" stroke-linejoin="round"/>
<path d="M153.417 187.266L140.781 205.222C140.781 205.222 158.482 212.043 169.332 215.869L175.037 236.595L185.887 201.588C185.887 201.588 167.708 198.675 153.417 187.266Z" fill="#FFD200"/>
</svg>
