<svg width="100%" height="100%" viewBox="0 0 211 182" fill="none" xmlns="http://www.w3.org/2000/svg">
<path d="M195.862 51.4667C192.614 60.1754 188.209 69.2089 186.351 71.0257C180.931 74.1621 170.111 66.9657 150.674 66.9657C146.218 66.9657 134.718 56.1661 130.526 52.2787C124.846 46.8991 118.865 41.8464 112.612 37.145L106.765 45.3564L135.774 80.8205V115.828H166.681V82.3328C171.39 83.7495 176.269 84.5245 181.185 84.6369C185.404 84.8018 189.584 83.7709 193.243 81.6629C198.501 78.3439 204.012 65.8188 207.717 55.9022L195.862 51.4667Z" fill="#0FA24A"/>
<path d="M166.681 116.863H135.774C135.505 116.863 135.247 116.756 135.056 116.566C134.866 116.375 134.759 116.117 134.759 115.848V81.2062L105.984 46.0161C105.849 45.8395 105.777 45.6239 105.777 45.4021C105.777 45.1803 105.849 44.9646 105.984 44.788L111.82 36.5766C111.977 36.3594 112.215 36.2134 112.48 36.1706C112.612 36.1477 112.747 36.1512 112.878 36.1808C113.008 36.2104 113.132 36.2656 113.241 36.3432C119.528 41.0712 125.54 46.1545 131.247 51.5682L131.683 51.9742C135.429 55.4455 146.807 65.9913 150.715 65.9913C158.688 66.0974 166.617 67.2056 174.313 69.2901C179.591 70.569 183.448 71.5028 185.773 70.3051C187.397 68.5593 191.609 60.1551 194.908 51.2028C194.954 51.0772 195.025 50.9621 195.116 50.864C195.207 50.7658 195.316 50.6867 195.438 50.631C195.56 50.5754 195.691 50.5443 195.825 50.5397C195.959 50.535 196.092 50.5569 196.217 50.6039L208.113 55.0395C208.238 55.0858 208.354 55.1565 208.452 55.2475C208.55 55.3384 208.629 55.4479 208.685 55.5696C208.74 55.6913 208.771 55.8228 208.776 55.9565C208.781 56.0903 208.759 56.2236 208.712 56.3488C203.251 70.9851 198.247 79.8258 193.832 82.617C187.925 86.3522 178.84 86.677 167.696 83.7741V115.939C167.673 116.193 167.556 116.428 167.368 116.599C167.18 116.77 166.935 116.864 166.681 116.863V116.863ZM136.789 114.833H165.666V82.3531C165.667 82.1973 165.705 82.0439 165.775 81.9048C165.845 81.7658 165.947 81.6448 166.072 81.5513C166.197 81.455 166.343 81.3893 166.498 81.3594C166.653 81.3294 166.813 81.336 166.965 81.3787C178.13 84.5354 187.133 84.3527 192.746 80.8103C196.572 78.3845 201.424 69.7671 206.448 56.4503L196.41 52.776C193.456 60.5002 189.112 69.7164 187.021 71.7565C186.96 71.8156 186.892 71.8667 186.818 71.9088C183.773 73.6546 179.581 72.6396 173.755 71.2186C166.216 69.1634 158.447 68.0754 150.633 67.9807C146.492 67.9807 137.987 60.622 130.222 53.4256L129.796 53.0196C121.158 45.0214 114.936 40.2103 112.794 38.5965L108.003 45.3361L136.525 80.2013C136.67 80.3826 136.749 80.6084 136.748 80.8408L136.789 114.833Z" fill="#093F68"/>
<path d="M151.161 88.6563L148.258 68.407H154.531L151.161 88.6563Z" fill="white"/>
<path d="M151.161 89.6713C150.915 89.6737 150.676 89.5865 150.489 89.4259C150.303 89.2653 150.181 89.0423 150.146 88.7984L147.243 68.5492C147.221 68.4037 147.231 68.2551 147.272 68.1138C147.313 67.9725 147.384 67.8418 147.481 67.7308C147.578 67.6198 147.697 67.5311 147.831 67.4708C147.966 67.4106 148.111 67.3802 148.258 67.3819H154.531C154.678 67.3831 154.824 67.4165 154.957 67.4796C155.09 67.5427 155.208 67.634 155.302 67.7473C155.399 67.8591 155.47 67.9906 155.51 68.1326C155.55 68.2746 155.559 68.4237 155.536 68.5694L152.156 88.8695C152.107 89.0968 151.982 89.3005 151.801 89.4465C151.62 89.5925 151.394 89.6718 151.161 89.6713ZM149.426 69.3713L151.232 81.9877L153.333 69.3713H149.426Z" fill="#093F68"/>
<path d="M149.659 16.3375C150.431 16.2158 151.212 16.1547 151.994 16.1548C155.597 16.1548 159.281 16.0635 162.57 17.6773C165.904 19.3169 168.714 21.8532 170.687 25.0016C172.659 28.1499 173.714 31.7857 173.735 35.5007L172.974 50.269H129.724C129.643 49.3481 129.705 48.4203 129.907 47.5183C129.881 46.5505 129.738 45.5894 129.481 44.656C128.967 42.2485 128.675 39.7988 128.608 37.3379C128.625 33.4599 129.433 29.6262 130.983 26.0714C131.856 23.9399 132.891 21.7272 134.779 20.3874C136.667 19.0476 139.661 19.0171 141.001 20.8949C143.298 18.4521 146.345 16.8479 149.659 16.3375V16.3375Z" fill="#725858"/>
<path d="M172.943 51.284H131.582C129.166 51.284 128.75 51.284 128.72 50.4111C128.596 49.7071 128.617 48.9855 128.781 48.2897C128.836 48.0185 128.874 47.7438 128.892 47.4676C128.887 46.8054 128.795 46.1467 128.618 45.5086C128.618 45.2955 128.527 45.0823 128.486 44.859C127.959 42.388 127.66 39.8738 127.593 37.348C127.605 33.3345 128.437 29.3657 130.039 25.6857C130.942 23.5136 132.069 21.0573 134.19 19.5957C135.179 18.8822 136.363 18.4882 137.582 18.4664C138.801 18.4446 139.998 18.7962 141.011 19.4739C143.376 17.3056 146.334 15.8921 149.507 15.4139L149.659 16.4289L149.507 15.4139C150.329 15.2841 151.161 15.2196 151.994 15.221H152.643C156.114 15.221 159.748 15.221 163.016 16.845C166.518 18.5688 169.469 21.2361 171.537 24.5465C173.605 27.8569 174.707 31.6789 174.719 35.5819C174.719 35.5819 174.719 35.5819 173.958 50.4111C173.924 50.655 173.802 50.878 173.615 51.0386C173.428 51.1992 173.189 51.2864 172.943 51.284ZM130.689 49.254H171.979C172.151 45.9958 172.689 35.5819 172.689 35.45C172.67 31.9341 171.671 28.4932 169.804 25.5135C167.938 22.5337 165.278 20.133 162.123 18.5807C159.241 17.18 156.033 17.1698 152.643 17.1698H151.994C151.266 17.1679 150.54 17.2256 149.821 17.3424C146.731 17.8089 143.888 19.3036 141.752 21.5851C141.647 21.693 141.521 21.7778 141.381 21.8337C141.241 21.8897 141.091 21.9156 140.94 21.9099C140.79 21.8999 140.643 21.8564 140.511 21.7827C140.38 21.709 140.266 21.6068 140.179 21.4836C139.164 20.093 136.819 20.1945 135.368 21.2197C133.683 22.4072 132.739 24.4575 131.917 26.4571C130.422 29.8872 129.641 33.586 129.623 37.3277C129.689 39.7172 129.974 42.0955 130.476 44.4327C130.476 44.6357 130.557 44.8286 130.608 45.0316C130.824 45.8459 130.93 46.6858 130.922 47.5285C130.895 47.8895 130.848 48.2488 130.78 48.6044C130.75 48.8378 130.709 49.051 130.689 49.254Z" fill="#093F68"/>
<path d="M148.258 64.7936H154.531V68.407C154.531 69.1123 154.251 69.7887 153.752 70.2874C153.253 70.7862 152.577 71.0663 151.872 71.0663H150.928C150.223 71.0663 149.546 70.7862 149.047 70.2874C148.549 69.7887 148.269 69.1123 148.269 68.407V64.7936H148.258Z" fill="#FFC9B0"/>
<path d="M151.872 72.0813H150.918C149.942 72.0786 149.008 71.6893 148.319 70.9986C147.63 70.3079 147.243 69.3723 147.243 68.3969V64.7936C147.243 64.5244 147.35 64.2663 147.541 64.0759C147.731 63.8856 147.989 63.7786 148.258 63.7786H154.531C154.8 63.7786 155.058 63.8856 155.249 64.0759C155.439 64.2663 155.546 64.5244 155.546 64.7936V68.3969C155.546 69.3723 155.159 70.3079 154.471 70.9986C153.782 71.6893 152.847 72.0786 151.872 72.0813V72.0813ZM149.273 65.8086V68.3969C149.273 68.8339 149.446 69.2532 149.754 69.5632C150.062 69.8732 150.481 70.0486 150.918 70.0513H151.872C152.309 70.0486 152.727 69.8732 153.035 69.5632C153.343 69.2532 153.516 68.8339 153.516 68.3969V65.8086H149.273Z" fill="#093F68"/>
<path d="M134.495 53.7504C137.668 53.7504 140.24 51.3965 140.24 48.4927C140.24 45.589 137.668 43.235 134.495 43.235C131.322 43.235 128.75 45.589 128.75 48.4927C128.75 51.3965 131.322 53.7504 134.495 53.7504Z" fill="#FFC9B0"/>
<path d="M134.495 54.7553C133.276 54.6625 132.111 54.2161 131.142 53.4709C130.173 52.7257 129.442 51.714 129.04 50.5598C128.637 49.4056 128.58 48.159 128.875 46.9728C129.171 45.7866 129.805 44.7123 130.702 43.8816C131.599 43.0509 132.718 42.4997 133.924 42.2958C135.129 42.0918 136.368 42.2439 137.488 42.7333C138.608 43.2228 139.561 44.0284 140.23 45.0514C140.899 46.0744 141.255 47.2703 141.255 48.4927C141.186 50.2186 140.436 51.847 139.169 53.0208C137.902 54.1947 136.221 54.8184 134.495 54.7553ZM134.495 44.25C133.677 44.3402 132.902 44.6652 132.265 45.1858C131.628 45.7064 131.155 46.4005 130.903 47.1841C130.651 47.9676 130.632 48.8073 130.847 49.6017C131.062 50.3961 131.503 51.1112 132.115 51.6608C132.728 52.2103 133.487 52.5708 134.3 52.6986C135.113 52.8265 135.945 52.7163 136.697 52.3813C137.449 52.0463 138.087 51.5009 138.536 50.8108C138.985 50.1208 139.224 49.3157 139.225 48.4927C139.157 47.3042 138.621 46.1909 137.735 45.396C136.849 44.6011 135.684 44.1891 134.495 44.25Z" fill="#093F68"/>
<path d="M167.97 53.7504C171.143 53.7504 173.715 51.3965 173.715 48.4927C173.715 45.589 171.143 43.235 167.97 43.235C164.797 43.235 162.225 45.589 162.225 48.4927C162.225 51.3965 164.797 53.7504 167.97 53.7504Z" fill="#FFC9B0"/>
<path d="M167.99 54.7552C166.77 54.6644 165.604 54.2196 164.634 53.4755C163.663 52.7313 162.931 51.7202 162.527 50.566C162.123 49.4119 162.064 48.1649 162.359 46.9779C162.653 45.791 163.287 44.7157 164.184 43.884C165.08 43.0523 166.2 42.5002 167.405 42.2955C168.611 42.0909 169.85 42.2425 170.971 42.7318C172.091 43.221 173.045 44.0267 173.715 45.0501C174.384 46.0734 174.74 47.2698 174.74 48.4927C174.668 50.2159 173.919 51.841 172.655 53.0141C171.39 54.1871 169.714 54.813 167.99 54.7552V54.7552ZM167.99 44.25C167.171 44.3382 166.396 44.6617 165.757 45.1813C165.118 45.701 164.643 46.3945 164.39 47.1781C164.137 47.9617 164.116 48.8019 164.33 49.597C164.545 50.3922 164.984 51.1083 165.597 51.6588C166.209 52.2093 166.968 52.5707 167.781 52.6992C168.595 52.8277 169.428 52.7179 170.18 52.383C170.933 52.0482 171.572 51.5026 172.021 50.8122C172.47 50.1218 172.709 49.3162 172.71 48.4927C172.642 47.306 172.107 46.1943 171.223 45.3997C170.339 44.605 169.177 44.1918 167.99 44.25V44.25Z" fill="#093F68"/>
<path d="M151.395 65.6158C146.517 65.6158 141.839 63.6781 138.39 60.229C134.941 56.7798 133.003 52.1018 133.003 47.224V37.3277C133.003 37.3277 137.631 34.6887 139.012 30.5171C139.012 30.5171 146.117 38.5559 152.887 38.0179C158.558 37.533 164.199 36.747 169.787 35.6631V47.224C169.787 52.1018 167.849 56.7798 164.4 60.229C160.951 63.6781 156.273 65.6158 151.395 65.6158V65.6158Z" fill="#FFC9B0"/>
<path d="M151.395 66.6308C146.25 66.6227 141.319 64.5755 137.681 60.9378C134.043 57.3 131.996 52.3685 131.988 47.224V37.3277C131.988 37.1479 132.036 36.9714 132.127 36.8162C132.218 36.661 132.349 36.5328 132.506 36.4447C132.506 36.4447 136.809 33.9377 138.047 30.2025C138.103 30.0326 138.203 29.8804 138.336 29.7614C138.47 29.6424 138.632 29.5607 138.807 29.5246C138.982 29.4886 139.164 29.4994 139.333 29.5561C139.503 29.6127 139.655 29.7131 139.773 29.8472C139.844 29.9284 146.604 37.48 152.806 36.9522C158.432 36.4703 164.029 35.691 169.573 34.6177C169.722 34.5857 169.875 34.5873 170.023 34.6224C170.17 34.6576 170.308 34.7253 170.426 34.8207C170.544 34.9162 170.639 35.0369 170.704 35.1739C170.769 35.3109 170.802 35.4608 170.802 35.6124V47.1732C170.807 52.3266 168.766 57.2711 165.126 60.9198C161.487 64.5685 156.548 66.6227 151.395 66.6308V66.6308ZM134.018 37.886V47.224C134.018 49.506 134.467 51.7656 135.341 53.8738C136.214 55.9821 137.494 57.8977 139.107 59.5113C140.721 61.1248 142.637 62.4048 144.745 63.2781C146.853 64.1513 149.113 64.6008 151.395 64.6008C153.677 64.6008 155.936 64.1513 158.045 63.2781C160.153 62.4048 162.068 61.1248 163.682 59.5113C165.296 57.8977 166.576 55.9821 167.449 53.8738C168.322 51.7656 168.772 49.506 168.772 47.224V36.8913C166.163 37.3683 159.758 38.4848 152.968 39.0228C147.294 39.4897 141.651 34.6177 139.337 32.334C138.038 34.5868 136.213 36.4918 134.018 37.886V37.886Z" fill="#093F68"/>
<path d="M151.303 51.2941C150.722 51.2912 150.141 51.2402 149.568 51.1419C149.434 51.1192 149.307 51.0705 149.192 50.9986C149.078 50.9266 148.979 50.8329 148.901 50.7226C148.743 50.4999 148.68 50.2235 148.725 49.9543C148.771 49.6851 148.922 49.4451 149.145 49.2871C149.367 49.1292 149.644 49.0661 149.913 49.1119C150.55 49.2189 151.197 49.2496 151.841 49.2032C151.527 48.0239 151.073 46.886 150.491 45.8131C150.43 45.6945 150.393 45.565 150.381 45.4319C150.37 45.2988 150.385 45.1649 150.426 45.0376C150.466 44.9104 150.532 44.7924 150.618 44.6903C150.704 44.5883 150.809 44.5042 150.928 44.4429C151.046 44.3816 151.176 44.3442 151.309 44.333C151.442 44.3217 151.576 44.3368 151.703 44.3773C151.831 44.4178 151.949 44.483 152.051 44.5692C152.153 44.6553 152.237 44.7607 152.298 44.8793C153.252 46.7063 154.328 49.1322 153.75 50.2994C153.664 50.4961 153.534 50.6705 153.37 50.8095C153.207 50.9484 153.014 51.0482 152.806 51.1013C152.314 51.2262 151.81 51.291 151.303 51.2941Z" fill="#093F68"/>
<path d="M135.855 171.176H122.325L135.784 104.988H149.314L135.855 171.176Z" fill="#093F68"/>
<path d="M135.855 172.191H122.315C122.163 172.191 122.014 172.158 121.877 172.093C121.74 172.028 121.619 171.933 121.523 171.815C121.429 171.698 121.362 171.562 121.327 171.417C121.292 171.271 121.29 171.119 121.32 170.973L134.779 104.785C134.827 104.552 134.954 104.343 135.14 104.195C135.325 104.046 135.557 103.968 135.794 103.973H149.314C149.464 103.974 149.612 104.008 149.747 104.073C149.882 104.138 150.001 104.232 150.096 104.348C150.191 104.464 150.26 104.6 150.297 104.745C150.334 104.891 150.338 105.043 150.309 105.191L136.85 171.379C136.803 171.608 136.678 171.814 136.497 171.962C136.316 172.11 136.089 172.191 135.855 172.191ZM123.563 170.161H135.023L148.076 106.003H136.606L123.563 170.161Z" fill="#093F68"/>
<path d="M165.564 171.176H155.049L154.531 104.988H166.681L165.564 171.176Z" fill="#093F68"/>
<path d="M165.564 172.191H155.049C154.78 172.191 154.521 172.084 154.331 171.893C154.141 171.703 154.034 171.445 154.034 171.176L153.516 104.998C153.515 104.864 153.541 104.732 153.591 104.608C153.642 104.484 153.716 104.372 153.81 104.277C153.904 104.181 154.017 104.105 154.14 104.053C154.264 104 154.397 103.973 154.531 103.973H166.711C166.98 103.973 167.238 104.08 167.429 104.27C167.619 104.46 167.726 104.718 167.726 104.988L166.61 171.166C166.611 171.302 166.585 171.438 166.532 171.564C166.48 171.691 166.403 171.805 166.305 171.901C166.208 171.997 166.092 172.072 165.964 172.122C165.837 172.171 165.701 172.195 165.564 172.191V172.191ZM156.054 170.161H164.559L165.645 106.003H155.556L156.054 170.161Z" fill="#093F68"/>
<path d="M166.681 104.886H136.363V117.228H166.681V104.886Z" fill="#093F68"/>
<path d="M166.681 118.244H136.363C136.093 118.244 135.835 118.137 135.645 117.946C135.455 117.756 135.348 117.498 135.348 117.229V104.886C135.348 104.617 135.455 104.359 135.645 104.168C135.835 103.978 136.093 103.871 136.363 103.871H166.681C166.95 103.871 167.208 103.978 167.398 104.168C167.589 104.359 167.696 104.617 167.696 104.886V117.229C167.696 117.498 167.589 117.756 167.398 117.946C167.208 118.137 166.95 118.244 166.681 118.244ZM137.378 116.214H165.666V105.901H137.378V116.214Z" fill="#093F68"/>
<path d="M135.855 171.176L134.059 180.087H113.505L124.721 171.176H135.855Z" fill="#0FA24A"/>
<path d="M134.059 181.102H113.505C113.295 181.101 113.091 181.035 112.92 180.913C112.75 180.791 112.621 180.619 112.552 180.421C112.483 180.223 112.477 180.009 112.535 179.807C112.593 179.606 112.712 179.427 112.875 179.296L124.04 170.374C124.22 170.234 124.442 170.159 124.67 170.161H135.835C135.986 170.159 136.135 170.191 136.272 170.254C136.409 170.317 136.53 170.41 136.626 170.526C136.72 170.643 136.787 170.779 136.822 170.925C136.857 171.07 136.86 171.222 136.829 171.369L135.053 180.26C135.013 180.495 134.891 180.708 134.709 180.862C134.527 181.016 134.297 181.101 134.059 181.102V181.102ZM116.418 179.072H133.226L134.617 172.191H125.066L116.418 179.072Z" fill="#093F68"/>
<path d="M155.698 171.176V180.087H174.547L163.92 171.176H155.698Z" fill="#0FA24A"/>
<path d="M174.547 181.102H155.698C155.429 181.102 155.171 180.996 154.981 180.805C154.79 180.615 154.683 180.357 154.683 180.087V171.176C154.683 170.907 154.79 170.648 154.981 170.458C155.171 170.268 155.429 170.161 155.698 170.161H163.93C164.167 170.16 164.397 170.243 164.58 170.394L175.217 179.316C175.373 179.45 175.486 179.629 175.538 179.828C175.591 180.028 175.581 180.239 175.511 180.433C175.44 180.63 175.308 180.801 175.136 180.921C174.963 181.041 174.757 181.104 174.547 181.102ZM156.713 179.072H171.766L163.554 172.191H156.713V179.072Z" fill="#093F68"/>
<path d="M205.361 45.2543L201.567 45.8912C199.732 46.1994 198.494 47.937 198.802 49.7725L199.439 53.5662C199.747 55.4016 201.484 56.6397 203.32 56.3316L207.114 55.6947C208.949 55.3866 210.187 53.6489 209.879 51.8135L209.242 48.0197C208.934 46.1843 207.196 44.9462 205.361 45.2543Z" fill="#FFC9B0"/>
<path d="M202.754 57.3842C201.717 57.3835 200.714 57.0148 199.924 56.3437C199.134 55.6726 198.608 54.7428 198.44 53.72L197.801 49.9442C197.606 48.7935 197.877 47.6129 198.552 46.6614C199.228 45.7099 200.253 45.0654 201.404 44.8692L205.19 44.2399C205.76 44.141 206.344 44.156 206.908 44.2838C207.472 44.4117 208.006 44.65 208.477 44.9849C208.949 45.3199 209.35 45.7449 209.657 46.2354C209.963 46.726 210.17 47.2724 210.265 47.8432L210.894 51.6291C210.993 52.1964 210.978 52.7779 210.849 53.3392C210.72 53.9005 210.48 54.4304 210.143 54.8974C209.81 55.3672 209.387 55.7668 208.9 56.0733C208.412 56.3798 207.869 56.5873 207.301 56.6838L203.515 57.3131C203.264 57.3581 203.009 57.3818 202.754 57.3842ZM205.921 46.2192C205.789 46.2091 205.656 46.2091 205.525 46.2192L201.739 46.8586C201.123 46.9631 200.574 47.3066 200.211 47.8142C199.848 48.3219 199.7 48.9525 199.8 49.5686L200.47 53.385C200.574 54.0025 200.919 54.5533 201.429 54.9167C201.939 55.2802 202.572 55.4265 203.19 55.3237L206.976 54.6842C207.591 54.5799 208.139 54.236 208.501 53.728C208.862 53.2199 209.007 52.5892 208.905 51.9742L208.275 48.1882C208.182 47.6388 207.898 47.1399 207.472 46.7796C207.047 46.4193 206.508 46.2209 205.951 46.2192H205.921Z" fill="#093F68"/>
<path d="M198.755 48.6389C198.448 47.578 197.342 46.9657 196.284 47.2713C195.226 47.577 194.616 48.6848 194.923 49.7458L195.632 52.2032C195.939 53.2641 197.045 53.8764 198.103 53.5708C199.161 53.2651 199.771 52.1573 199.465 51.0963L198.755 48.6389Z" fill="#FFC9B0"/>
<path d="M197.547 54.6436C197.039 54.6458 196.539 54.5164 196.095 54.2681C195.398 53.881 194.881 53.236 194.654 52.4715L193.944 50.0152C193.761 49.6172 193.666 49.1844 193.666 48.7465C193.666 48.3086 193.76 47.8757 193.942 47.4775C194.125 47.0794 194.391 46.7252 194.723 46.4392C195.054 46.1532 195.444 45.9421 195.864 45.8203C196.285 45.6986 196.727 45.669 197.16 45.7336C197.593 45.7982 198.007 45.9554 198.374 46.1946C198.741 46.4339 199.052 46.7494 199.286 47.1197C199.52 47.49 199.671 47.9064 199.729 48.3405L200.44 50.7968C200.659 51.5651 200.568 52.389 200.186 53.0907C199.998 53.4375 199.741 53.7429 199.433 53.9887C199.124 54.2346 198.769 54.4159 198.389 54.5218C198.116 54.6017 197.832 54.6427 197.547 54.6436V54.6436ZM196.836 48.1882C196.749 48.1777 196.66 48.1777 196.572 48.1882C196.325 48.2659 196.116 48.4354 195.99 48.6619C195.863 48.8884 195.829 49.1548 195.892 49.4062L196.603 51.8625C196.683 52.1082 196.853 52.3142 197.079 52.4387C197.305 52.5632 197.571 52.5967 197.821 52.5324V52.5324C198.064 52.4528 198.269 52.284 198.393 52.06C198.517 51.836 198.552 51.5733 198.491 51.3246L197.78 48.8581C197.71 48.6636 197.582 48.4952 197.413 48.3754C197.244 48.2557 197.043 48.1904 196.836 48.1882Z" fill="#093F68"/>
<path d="M135.774 89.6713C135.505 89.6713 135.247 89.5644 135.056 89.374C134.866 89.1837 134.759 88.9255 134.759 88.6563V77.2984C134.759 77.0293 134.866 76.7711 135.056 76.5807C135.247 76.3904 135.505 76.2834 135.774 76.2834C136.043 76.2834 136.301 76.3904 136.492 76.5807C136.682 76.7711 136.789 77.0293 136.789 77.2984V88.6563C136.789 88.9255 136.682 89.1837 136.492 89.374C136.301 89.5644 136.043 89.6713 135.774 89.6713Z" fill="#093F68"/>
<path d="M166.681 83.3681C166.411 83.3681 166.153 83.2612 165.963 83.0708C165.773 82.8805 165.666 82.6223 165.666 82.3531V74.9132C165.666 74.644 165.773 74.3858 165.963 74.1955C166.153 74.0051 166.411 73.8982 166.681 73.8982C166.95 73.8982 167.208 74.0051 167.398 74.1955C167.589 74.3858 167.696 74.644 167.696 74.9132V82.3531C167.696 82.6223 167.589 82.8805 167.398 83.0708C167.208 83.2612 166.95 83.3681 166.681 83.3681Z" fill="#093F68"/>
<path d="M150.583 59.2619C149.055 59.2502 147.547 58.9253 146.15 58.3073C144.754 57.6892 143.498 56.7912 142.463 55.6688C142.309 55.4587 142.241 55.1975 142.274 54.9392C142.308 54.6809 142.439 54.4452 142.641 54.2809C142.843 54.1166 143.101 54.0363 143.36 54.0566C143.62 54.0769 143.862 54.1962 144.036 54.3899C144.269 54.6741 149.497 60.7844 158.55 54.2072C158.769 54.0626 159.035 54.0081 159.293 54.0551C159.55 54.1021 159.78 54.247 159.933 54.4594C160.087 54.6718 160.152 54.9353 160.116 55.1947C160.079 55.4542 159.944 55.6895 159.738 55.8515C156.186 58.46 153.12 59.2619 150.583 59.2619Z" fill="#093F68"/>
<path d="M146.218 45.0112C145.949 45.0112 145.691 44.9043 145.501 44.714C145.31 44.5236 145.203 44.2654 145.203 43.9962C145.203 43.5359 145.02 43.0944 144.695 42.769C144.369 42.4435 143.928 42.2606 143.468 42.2606C143.007 42.2606 142.566 42.4435 142.24 42.769C141.915 43.0944 141.732 43.5359 141.732 43.9962C141.732 44.2654 141.625 44.5236 141.435 44.714C141.244 44.9043 140.986 45.0112 140.717 45.0112C140.448 45.0112 140.19 44.9043 139.999 44.714C139.809 44.5236 139.702 44.2654 139.702 43.9962C139.702 42.9975 140.099 42.0397 140.805 41.3335C141.511 40.6273 142.469 40.2306 143.468 40.2306C144.466 40.2306 145.424 40.6273 146.13 41.3335C146.836 42.0397 147.233 42.9975 147.233 43.9962C147.233 44.2654 147.126 44.5236 146.936 44.714C146.746 44.9043 146.487 45.0112 146.218 45.0112Z" fill="#093F68"/>
<path d="M161.9 45.0112C161.631 45.0112 161.373 44.9043 161.182 44.714C160.992 44.5236 160.885 44.2654 160.885 43.9962C160.885 43.5359 160.702 43.0944 160.377 42.769C160.051 42.4435 159.61 42.2606 159.149 42.2606C158.689 42.2606 158.248 42.4435 157.922 42.769C157.597 43.0944 157.414 43.5359 157.414 43.9962C157.414 44.2654 157.307 44.5236 157.116 44.714C156.926 44.9043 156.668 45.0112 156.399 45.0112C156.129 45.0112 155.871 44.9043 155.681 44.714C155.491 44.5236 155.384 44.2654 155.384 43.9962C155.384 42.9975 155.78 42.0397 156.487 41.3335C157.193 40.6273 158.151 40.2306 159.149 40.2306C160.148 40.2306 161.106 40.6273 161.812 41.3335C162.518 42.0397 162.915 42.9975 162.915 43.9962C162.915 44.2654 162.808 44.5236 162.618 44.714C162.427 44.9043 162.169 45.0112 161.9 45.0112Z" fill="#093F68"/>
<path d="M90.85 37.1451C90.85 37.1451 94.6867 34.7496 95.4276 32.7501C97.0398 28.3933 98.3223 23.9214 99.2643 19.3724C99.4369 18.5096 100.046 17.3424 100.868 17.718C101.376 17.921 101.507 18.5604 101.568 19.1085C102.066 23.5238 101.304 34.1305 101.203 34.7395C101.101 35.3485 98.5843 42.7377 96.6862 45.3564C94.7442 42.6294 92.7988 39.8923 90.85 37.1451Z" fill="#FFC9B0"/>
<path d="M96.6761 46.3917C96.5151 46.3909 96.3565 46.3519 96.2136 46.2777C96.0706 46.2036 95.9473 46.0965 95.8539 45.9654L90.0177 37.754C89.9375 37.6422 89.8808 37.5153 89.8511 37.381C89.8215 37.2466 89.8194 37.1076 89.8451 36.9725C89.8724 36.8372 89.927 36.709 90.0056 36.5955C90.0841 36.4821 90.1849 36.3859 90.3019 36.3127C91.6722 35.45 94.0168 33.6331 94.4634 32.4253C96.0593 28.1288 97.3283 23.7179 98.2595 19.2303C98.3219 18.7523 98.4843 18.2929 98.7361 17.8819C98.988 17.4709 99.3236 17.1176 99.7211 16.845C99.9513 16.7206 100.206 16.6479 100.467 16.6321C100.728 16.6163 100.99 16.6578 101.233 16.7537C101.634 16.9706 101.969 17.2915 102.203 17.6827C102.437 18.0738 102.562 18.5207 102.563 18.9765C103.081 23.5745 102.299 34.2015 102.198 34.8714C102.076 35.6936 99.4877 43.1843 97.5084 45.9349C97.4174 46.0731 97.294 46.187 97.1489 46.2666C97.0039 46.3462 96.8416 46.3891 96.6761 46.3917ZM92.271 37.4292L96.6152 43.5192C98.0502 40.6372 99.2485 37.6432 100.198 34.5669C100.29 33.9275 101.02 23.4019 100.553 19.2201C100.553 19.0882 100.553 18.9765 100.503 18.8953C100.377 19.108 100.291 19.3419 100.249 19.5855C99.2928 24.1763 97.9934 28.6888 96.3614 33.085C95.7524 34.7902 93.5499 36.536 92.271 37.4292Z" fill="#093F68"/>
<path d="M112.612 37.1451C112.612 37.1451 108.775 34.7496 108.034 32.7501C106.417 28.3948 105.135 23.9226 104.197 19.3724C104.015 18.5096 103.416 17.3424 102.594 17.718C102.086 17.921 101.954 18.5604 101.893 19.1085C101.396 23.5238 102.157 34.1305 102.248 34.7395C102.34 35.3485 104.877 42.7377 106.765 45.3564L112.612 37.1451Z" fill="#FFC9B0"/>
<path d="M106.765 46.3917C106.604 46.3909 106.446 46.3519 106.303 46.2778C106.16 46.2036 106.036 46.0966 105.943 45.9654C103.913 43.2249 101.376 35.7342 101.244 34.912C101.152 34.2523 100.371 23.5948 100.878 19.0171C100.892 18.5695 101.023 18.1332 101.258 17.752C101.493 17.3709 101.824 17.0581 102.218 16.845C102.46 16.7487 102.72 16.7069 102.979 16.7227C103.239 16.7385 103.492 16.8114 103.72 16.9364C104.11 17.1995 104.442 17.5397 104.695 17.936C104.948 18.3322 105.117 18.7762 105.192 19.2404C106.118 23.7293 107.387 28.1405 108.988 32.4354C109.435 33.6433 111.779 35.4804 113.15 36.3229C113.267 36.396 113.367 36.4923 113.446 36.6057C113.524 36.7191 113.579 36.8474 113.606 36.9826C113.632 37.1178 113.63 37.2568 113.6 37.3911C113.571 37.5255 113.514 37.6524 113.434 37.7642L107.597 45.9755C107.502 46.1062 107.377 46.2122 107.232 46.2846C107.087 46.357 106.927 46.3937 106.765 46.3917ZM102.949 18.875C102.949 18.9562 102.949 19.0577 102.949 19.1998C102.472 23.4222 103.213 33.9072 103.304 34.5669C104.258 37.6336 105.453 40.6202 106.877 43.4989L111.221 37.4089C109.952 36.5157 107.75 34.7699 107.161 33.1053C105.527 28.7038 104.231 24.1841 103.284 19.5855C103.21 19.3327 103.097 19.093 102.949 18.875Z" fill="#093F68"/>
<path d="M35.2077 172.262L23.657 172.049L35.9689 111.149L47.5095 111.372L35.2077 172.262Z" fill="#FFC9B0"/>
<path d="M35.1975 173.277L23.6468 173.064C23.4986 173.061 23.3528 173.026 23.2195 172.961C23.0862 172.897 22.9688 172.803 22.8754 172.688C22.7815 172.571 22.7146 172.435 22.6795 172.29C22.6444 172.144 22.642 171.992 22.6724 171.846L34.9844 110.946C35.0318 110.713 35.1594 110.504 35.3449 110.356C35.5303 110.208 35.7619 110.129 35.9994 110.134L47.5399 110.347C47.689 110.351 47.8353 110.387 47.9686 110.454C48.102 110.52 48.219 110.616 48.3113 110.733C48.4038 110.848 48.4699 110.982 48.5049 111.126C48.54 111.27 48.5432 111.42 48.5143 111.565L36.2024 172.465C36.1553 172.696 36.0292 172.903 35.8458 173.051C35.6625 173.2 35.4333 173.279 35.1975 173.277V173.277ZM24.875 171.054L34.3551 171.237L46.2509 112.367L36.7708 112.194L24.875 171.054Z" fill="#093F68"/>
<path d="M66.0535 172.262L54.5028 172.049L55.2235 111.149L66.7742 111.372L66.0535 172.262Z" fill="#FFC9B0"/>
<path d="M66.0536 173.277L54.5029 173.064C54.2337 173.064 53.9755 172.957 53.7851 172.766C53.5948 172.576 53.4879 172.318 53.4879 172.049L54.2085 111.149C54.2091 111.014 54.2363 110.882 54.2885 110.758C54.3408 110.634 54.4171 110.522 54.513 110.428C54.6099 110.335 54.7244 110.261 54.8499 110.213C54.9753 110.164 55.1092 110.14 55.2438 110.144L66.7843 110.357C67.0535 110.357 67.3117 110.464 67.5021 110.654C67.6924 110.845 67.7993 111.103 67.7993 111.372L67.0787 172.272C67.0755 172.405 67.0461 172.537 66.9921 172.659C66.9381 172.78 66.8606 172.891 66.7641 172.982C66.575 173.17 66.3198 173.276 66.0536 173.277ZM55.528 171.054L65.0487 171.227L65.7389 112.357L56.2284 112.174L55.528 171.054Z" fill="#093F68"/>
<path d="M68.4489 100.765L69.5248 144.735L27.4226 143.882L35.8776 100.765H68.4489Z" fill="#093F68"/>
<path d="M69.535 145.75L27.4328 144.897C27.2863 144.893 27.1424 144.858 27.011 144.793C26.8796 144.728 26.7638 144.636 26.6715 144.522C26.5773 144.407 26.5094 144.273 26.4725 144.129C26.4357 143.986 26.4309 143.835 26.4584 143.69L34.9133 100.572C34.9587 100.338 35.0853 100.127 35.271 99.9763C35.4567 99.826 35.6894 99.7459 35.9283 99.7502H68.4997C68.7689 99.7502 69.027 99.8572 69.2174 100.048C69.4077 100.238 69.5147 100.496 69.5147 100.765L70.55 144.735C70.5535 144.872 70.5292 145.008 70.4786 145.136C70.428 145.263 70.3522 145.379 70.2556 145.476C70.0608 145.659 69.8019 145.757 69.535 145.75V145.75ZM28.6609 142.888L68.52 143.72L67.505 101.801H36.7505L28.6609 142.888Z" fill="#093F68"/>
<path d="M44.7386 14.4496C44.7386 14.4496 39.4301 15.1703 38.8313 15.4646C37.4703 16.0071 36.2619 16.8728 35.3105 17.9869C34.3591 19.101 33.6932 20.43 33.3705 21.8591L26.57 49.9442C25.6507 53.0028 25.2426 56.1921 25.3622 59.3837C26.0829 67.0977 33.1371 73.1166 40.709 74.7508C48.2809 76.3849 56.1776 74.4767 63.4146 71.7058C67.9415 70.0006 72.7729 67.6458 75.5946 63.5147C79.0151 58.4397 76.5182 54.1158 76.7313 48.5536C77.046 40.0784 76.914 28.2536 72.5292 20.5092C66.7539 10.4404 51.3868 5.81197 44.7386 14.4496Z" fill="#725858"/>
<path d="M46.5655 76.3646C44.519 76.3716 42.4774 76.1607 40.4755 75.7353C33.0559 74.1316 25.1389 68.0213 24.337 59.4953C24.0224 56.1255 24.8445 52.7253 25.5652 49.731L32.3657 21.646C32.7202 20.065 33.4518 18.5932 34.4981 17.356C35.5444 16.1189 36.8743 15.1531 38.3745 14.541C38.3745 14.541 42.3127 13.6884 44.1701 13.526C46.8802 10.2475 50.9909 8.62351 55.802 8.96861C59.3961 9.29859 62.861 10.475 65.913 12.4015C68.9651 14.328 71.5176 16.9498 73.3615 20.0524C77.8986 28.0202 78.0001 40.1799 77.6854 48.6348C77.6672 50.276 77.786 51.9158 78.0407 53.5373C78.467 56.9071 78.9136 60.3885 76.3862 64.1237C73.3412 68.6405 68.0328 71.0765 63.7596 72.7005C57.223 75.1466 51.6101 76.3646 46.5655 76.3646ZM44.7893 15.4646C44.2209 15.5255 39.8259 16.165 39.2372 16.3781C38.0204 16.8623 36.9399 17.6357 36.0892 18.6314C35.2385 19.6271 34.6433 20.8151 34.3551 22.0926L27.5546 50.1776C26.8339 53.1617 26.093 56.2676 26.3772 59.3126C27.0877 66.8947 34.2333 72.3351 40.9221 73.7764C47.1238 75.1263 54.1171 74.1722 63.0593 70.8024C67.0482 69.2901 71.9913 67.0368 74.7318 62.9869C76.8227 59.8912 76.4674 57.0593 76.0411 53.791C75.7735 52.062 75.6546 50.3131 75.6859 48.5638C75.9904 40.3524 75.899 28.5784 71.6259 21.0573C69.9548 18.2396 67.639 15.8586 64.8687 14.11C62.0985 12.3614 58.9529 11.2951 55.6904 10.9986C51.4172 10.6941 47.814 12.1557 45.5404 15.0586C45.4522 15.1768 45.3393 15.2743 45.2096 15.3444C45.0799 15.4145 44.9365 15.4556 44.7893 15.4646Z" fill="#093F68"/>
<path d="M39.491 65.9406L38.476 66.8236C38.7948 66.5076 39.1339 66.2126 39.491 65.9406V65.9406Z" fill="#0FA24A"/>
<path d="M38.476 67.8386C38.2731 67.8398 38.0745 67.7802 37.9059 67.6675C37.7372 67.5548 37.6062 67.3941 37.5297 67.2062C37.4532 67.0183 37.4348 66.8118 37.4769 66.6133C37.5189 66.4149 37.6194 66.2336 37.7655 66.0928C38.1184 65.7339 38.4912 65.3951 38.882 65.0778C39.0901 64.9277 39.3473 64.8621 39.6018 64.894C39.8564 64.9259 40.0894 65.0531 40.2541 65.2498C40.4187 65.4466 40.5027 65.6984 40.4892 65.9546C40.4756 66.2108 40.3656 66.4524 40.1812 66.6307C40.0086 66.7931 39.6331 67.1179 39.1662 67.5544C38.9805 67.7333 38.7338 67.835 38.476 67.8386Z" fill="#093F68"/>
<path d="M96.6862 45.3766C88.9418 56.2168 79.6241 62.6316 68.4591 76.8416V100.806H35.8776L35.0757 83.5508C35.0757 83.5508 17.9222 87.8341 13.9231 87.8341C5.19413 87.8341 3.99643 61.8805 3.99643 61.8805L12.5123 60.2971C12.5123 60.2971 15.2528 70.7618 16.8666 72.7207C16.8666 72.7207 39.3184 66.174 39.491 66.0217C39.6635 65.8695 43.7235 63.6872 46.1392 63.6872H57.0403C58.6643 63.6872 90.8398 37.2972 90.8398 37.2972L96.6862 45.3766Z" fill="#0FA24A"/>
<path d="M68.4591 101.78H35.8776C35.6084 101.78 35.3502 101.673 35.1599 101.483C34.9695 101.293 34.8626 101.034 34.8626 100.765L34.1115 84.6978C30.1022 85.7128 17.4147 88.7578 13.9231 88.7578C4.50393 88.7578 3.10323 64.5906 2.98143 61.8298C2.97751 61.5895 3.05901 61.3555 3.21143 61.1697C3.36384 60.9838 3.57728 60.858 3.81373 60.8148L12.3296 59.2416C12.5818 59.1947 12.8423 59.2451 13.0589 59.3826C13.2754 59.52 13.4319 59.7344 13.4968 59.9825C14.4306 63.5553 16.1866 69.4017 17.3031 71.4723C25.9306 68.9551 38.3542 65.3113 39.085 65.0271C40.1 64.4282 43.7235 62.6012 46.1392 62.6012H56.8982C59.1921 61.5862 78.4467 46.0466 90.1902 36.3939C90.2981 36.3049 90.4232 36.239 90.5577 36.2006C90.6922 36.1622 90.8331 36.152 90.9718 36.1706C91.1102 36.1854 91.2437 36.2303 91.363 36.3022C91.4822 36.3741 91.5843 36.4712 91.662 36.5868L97.5084 44.7981C97.6308 44.97 97.6965 45.1758 97.6965 45.3868C97.6965 45.5978 97.6308 45.8036 97.5084 45.9755C93.5505 51.2536 89.1644 56.1964 84.3946 60.7539C79.1054 65.9292 74.1234 71.4094 69.4741 77.1665V100.775C69.4714 101.043 69.3633 101.298 69.1732 101.487C68.9832 101.675 68.7265 101.78 68.4591 101.78V101.78ZM36.852 99.7502H67.4441V76.8011C67.4448 76.5768 67.5197 76.3591 67.6572 76.1819C72.4158 70.2595 77.5235 64.6264 82.9533 59.3126C87.4705 54.9951 91.6446 50.3323 95.4378 45.3665L90.647 38.6371C69.6466 55.8921 58.3395 64.6211 57.0403 64.6211H46.19C44.2107 64.6211 40.5161 66.5394 40.1 66.7932C39.6432 67.0266 37.1057 67.8082 17.2117 73.614C17.0281 73.6581 16.8359 73.6501 16.6566 73.5909C16.4773 73.5317 16.318 73.4237 16.1967 73.279C14.725 71.5028 12.6239 64.144 11.8931 61.3934L5.17382 62.6317C5.4452 66.6493 5.98778 70.6439 6.79783 74.5884C8.48273 82.4242 11.0507 86.7684 14.0348 86.7684C17.8613 86.7684 34.7712 82.5561 34.9336 82.5155C35.0789 82.4779 35.2307 82.4729 35.3782 82.501C35.5256 82.5291 35.665 82.5895 35.7862 82.6779C35.9088 82.7672 36.0098 82.8829 36.0819 83.0164C36.1539 83.1499 36.1951 83.2978 36.2024 83.4493L36.852 99.7502Z" fill="#093F68"/>
<path d="M50.6661 64.8241L53.7111 87.753L56.9185 64.8241H50.6661Z" fill="#F56132"/>
<path d="M53.7112 88.6664C53.4903 88.666 53.2771 88.5855 53.1111 88.4399C52.945 88.2944 52.8372 88.0936 52.8078 87.8747L49.7628 64.9459C49.7431 64.8175 49.752 64.6863 49.7889 64.5618C49.8257 64.4372 49.8896 64.3223 49.9759 64.2252C50.0613 64.1259 50.1672 64.0463 50.2864 63.992C50.4056 63.9376 50.5352 63.9099 50.6662 63.9106H56.9186C57.0467 63.9112 57.1733 63.9388 57.2901 63.9916C57.4069 64.0443 57.5112 64.121 57.5964 64.2168C57.6816 64.3125 57.7457 64.4251 57.7846 64.5472C57.8234 64.6693 57.8361 64.7982 57.8219 64.9256L54.6145 87.895C54.5806 88.1102 54.471 88.3062 54.3053 88.4476C54.1397 88.5891 53.929 88.6667 53.7112 88.6664V88.6664ZM51.6812 65.7376L53.7112 80.9626L55.8426 65.7376H51.6812Z" fill="#093F68"/>
<path d="M50.6053 62.6621H56.9693V66.3263C56.9693 67.0423 56.6848 67.729 56.1785 68.2354C55.6722 68.7417 54.9855 69.0262 54.2694 69.0262H53.295C52.5789 69.0262 51.8922 68.7417 51.3859 68.2354C50.8795 67.729 50.5951 67.0423 50.5951 66.3263V62.6621H50.6053Z" fill="#FFC9B0"/>
<path d="M54.31 70.0411H53.295C52.3088 70.0412 51.3629 69.6501 50.6646 68.9537C49.9663 68.2573 49.5726 67.3124 49.5699 66.3262V62.6621C49.5699 62.3929 49.6769 62.1347 49.8672 61.9444C50.0576 61.754 50.3158 61.6471 50.5849 61.6471H56.9591C57.2283 61.6471 57.4865 61.754 57.6769 61.9444C57.8672 62.1347 57.9741 62.3929 57.9741 62.6621V66.3262C57.9716 67.302 57.5864 68.2378 56.9012 68.9324C56.216 69.6271 55.2856 70.0252 54.31 70.0411V70.0411ZM51.6608 63.6771V66.3262C51.6608 66.5484 51.7047 66.7683 51.7901 66.9734C51.8754 67.1785 52.0004 67.3647 52.1579 67.5213C52.3155 67.6778 52.5024 67.8017 52.708 67.8858C52.9136 67.9699 53.1338 68.0125 53.3559 68.0111H54.31C54.5321 68.0125 54.7523 67.9699 54.9579 67.8858C55.1635 67.8017 55.3504 67.6778 55.508 67.5213C55.6655 67.3647 55.7905 67.1785 55.8758 66.9734C55.9611 66.7683 56.005 66.5484 56.005 66.3262V63.6771H51.6608Z" fill="#093F68"/>
<path d="M35.5934 51.4464C39.0128 51.4464 41.7849 49.0606 41.7849 46.1176C41.7849 43.1746 39.0128 40.7889 35.5934 40.7889C32.1739 40.7889 29.4019 43.1746 29.4019 46.1176C29.4019 49.0606 32.1739 51.4464 35.5934 51.4464Z" fill="#FFC9B0"/>
<path d="M35.5934 52.4614C31.6247 52.4614 28.3869 49.6194 28.3869 46.1176C28.3869 42.6159 31.6247 39.7739 35.5934 39.7739C39.562 39.7739 42.7999 42.6159 42.7999 46.1176C42.7999 49.6194 39.562 52.4614 35.5934 52.4614ZM35.5934 41.8039C32.7412 41.8039 30.4169 43.7324 30.4169 46.1176C30.4169 48.5029 32.7412 50.4314 35.5934 50.4314C38.4455 50.4314 40.7699 48.4927 40.7699 46.1176C40.7699 43.7425 38.4455 41.8039 35.5934 41.8039Z" fill="#093F68"/>
<path d="M71.6665 51.4464C75.086 51.4464 77.858 49.0606 77.858 46.1176C77.858 43.1746 75.086 40.7889 71.6665 40.7889C68.247 40.7889 65.475 43.1746 65.475 46.1176C65.475 49.0606 68.247 51.4464 71.6665 51.4464Z" fill="#FFC9B0"/>
<path d="M71.6665 52.4614C67.6978 52.4614 64.46 49.6194 64.46 46.1176C64.46 42.6159 67.6978 39.7739 71.6665 39.7739C75.6351 39.7739 78.8628 42.6159 78.8628 46.1176C78.8628 49.6194 75.625 52.4614 71.6665 52.4614ZM71.6665 41.8039C68.8143 41.8039 66.49 43.7324 66.49 46.1176C66.49 48.5029 68.8143 50.4314 71.6665 50.4314C74.5186 50.4314 76.8328 48.4927 76.8328 46.1176C76.8328 43.7425 74.5186 41.8039 71.6665 41.8039Z" fill="#093F68"/>
<path d="M65.14 30.3039L59.1008 22.5392C59.1008 22.5392 57.7508 27.3198 56.9084 30.2735H47.3978L45.175 23.3207L42.536 30.2329H35.1569V44.8489C35.1529 47.2996 35.6319 49.7272 36.5663 51.9928C37.5008 54.2584 38.8725 56.3177 40.6031 58.053C42.3337 59.7883 44.3893 61.1656 46.6523 62.1062C48.9154 63.0469 51.3416 63.5324 53.7923 63.535C58.7428 63.535 63.4906 61.5685 66.9911 58.0679C70.4916 54.5674 72.4582 49.8197 72.4582 44.8692V30.3242L65.14 30.3039Z" fill="#FFC9B0"/>
<path d="M53.7923 64.55C48.5761 64.5419 43.5759 62.4655 39.8884 58.7761C36.2008 55.0867 34.127 50.0854 34.1216 44.8692V30.2126C34.1209 30.079 34.1465 29.9466 34.197 29.8229C34.2475 29.6992 34.3219 29.5867 34.416 29.4919C34.5108 29.3978 34.6233 29.3234 34.747 29.2729C34.8706 29.2224 35.003 29.1968 35.1366 29.1976H41.8153L44.16 22.935C44.2376 22.7325 44.378 22.5602 44.5606 22.4433C44.7433 22.3264 44.9586 22.2711 45.175 22.2854C45.3855 22.2898 45.5895 22.3596 45.7586 22.485C45.9278 22.6105 46.0537 22.7855 46.1189 22.9858L48.1489 29.2179H56.1573C56.9896 26.2642 58.1365 22.2245 58.1365 22.2245C58.1874 22.0439 58.2874 21.8809 58.4254 21.7537C58.5634 21.6265 58.7339 21.54 58.9181 21.5039C59.1055 21.4643 59.3002 21.4786 59.4798 21.5451C59.6594 21.6115 59.8165 21.7274 59.9331 21.8794L65.6678 29.2483H72.4886C72.7578 29.2483 73.016 29.3552 73.2063 29.5456C73.3967 29.7359 73.5036 29.9941 73.5036 30.2633V44.7677C73.5143 47.3625 73.0123 49.9339 72.0264 52.3342C71.0404 54.7345 69.5901 56.9164 67.7585 58.7546C65.9269 60.5928 63.7503 62.051 61.3536 63.0455C58.9568 64.0401 56.3872 64.5514 53.7923 64.55ZM36.1516 31.2276V44.8286C36.0952 47.1814 36.5099 49.5219 37.3713 51.7121C38.2327 53.9024 39.5235 55.8982 41.1676 57.5823C42.8118 59.2663 44.7761 60.6046 46.9451 61.5183C49.1141 62.432 51.4438 62.9026 53.7974 62.9026C56.151 62.9026 58.4808 62.432 60.6497 61.5183C62.8187 60.6046 64.783 59.2663 66.4272 57.5823C68.0713 55.8982 69.3621 53.9024 70.2235 51.7121C71.0849 49.5219 71.4996 47.1814 71.4432 44.8286V31.3392H65.14C64.985 31.3388 64.8322 31.303 64.6932 31.2343C64.5542 31.1657 64.4327 31.0662 64.3382 30.9434L59.5372 24.762C59.0602 26.4266 58.3801 28.822 57.8929 30.578C57.8296 30.7956 57.6953 30.9858 57.5114 31.1183C57.3274 31.2507 57.1044 31.3178 56.8779 31.3088H47.3572C47.1437 31.3058 46.9365 31.2355 46.7652 31.1079C46.5939 30.9804 46.4672 30.802 46.4031 30.5983L45.043 26.4165L43.4292 30.6389C43.3556 30.8296 43.2261 30.9937 43.0576 31.1096C42.8892 31.2255 42.6897 31.2879 42.4852 31.2885V31.2885L36.1516 31.2276Z" fill="#093F68"/>
<path d="M45.1547 43.844C46.1077 43.844 46.8802 43.0715 46.8802 42.1185C46.8802 41.1655 46.1077 40.393 45.1547 40.393C44.2017 40.393 43.4292 41.1655 43.4292 42.1185C43.4292 43.0715 44.2017 43.844 45.1547 43.844Z" fill="#093F68"/>
<path d="M62.9781 43.844C63.931 43.844 64.7036 43.0715 64.7036 42.1185C64.7036 41.1655 63.931 40.393 62.9781 40.393C62.0251 40.393 61.2526 41.1655 61.2526 42.1185C61.2526 43.0715 62.0251 43.844 62.9781 43.844Z" fill="#093F68"/>
<path d="M53.701 48.9393C53.1095 48.9366 52.5192 48.8891 51.9349 48.7972C51.6657 48.7501 51.4262 48.598 51.2692 48.3744C51.1122 48.1507 51.0504 47.8738 51.0975 47.6046C51.1446 47.3354 51.2967 47.096 51.5204 46.9389C51.7441 46.7819 52.0209 46.7201 52.2901 46.7672C52.9607 46.8789 53.6423 46.9096 54.3201 46.8586C54.0017 45.6533 53.5382 44.4911 52.9397 43.3974C52.8146 43.1579 52.7897 42.8784 52.8706 42.6204C52.9515 42.3625 53.1315 42.1473 53.3711 42.0221C53.6107 41.8969 53.8902 41.8721 54.1481 41.953C54.406 42.0339 54.6213 42.2139 54.7464 42.4535C55.7614 44.3109 56.7764 46.7672 56.2182 47.9548C56.1336 48.1513 56.0041 48.3252 55.8402 48.4627C55.6763 48.6002 55.4825 48.6974 55.2742 48.7465C54.7598 48.8756 54.2314 48.9403 53.701 48.9393V48.9393Z" fill="#093F68"/>
<path d="M48.6869 37.8149H40.4552C40.0272 37.8149 39.6167 37.6449 39.3141 37.3422C39.0114 37.0396 38.8414 36.6291 38.8414 36.2011C38.8414 35.773 39.0114 35.3626 39.3141 35.0599C39.6167 34.7572 40.0272 34.5872 40.4552 34.5872H48.697C49.125 34.5872 49.5355 34.7572 49.8382 35.0599C50.1408 35.3626 50.3109 35.773 50.3109 36.2011C50.3109 36.6291 50.1408 37.0396 49.8382 37.3422C49.5355 37.6449 49.125 37.8149 48.697 37.8149H48.6869Z" fill="#093F68"/>
<path d="M60.4 38.0179C59.9719 38.0287 59.5572 37.869 59.2469 37.5739C58.9366 37.2789 58.7563 36.8727 58.7455 36.4447C58.7347 36.0166 58.8944 35.6019 59.1895 35.2916C59.4845 34.9813 59.8907 34.801 60.3188 34.7902L68.5504 34.3741C68.7693 34.3495 68.9909 34.37 69.2015 34.4344C69.4122 34.4987 69.6075 34.6054 69.7753 34.748C69.9431 34.8907 70.08 35.0661 70.1775 35.2636C70.275 35.4612 70.331 35.6765 70.3421 35.8965C70.3532 36.1165 70.3191 36.3364 70.2421 36.5427C70.165 36.7491 70.0465 36.9374 69.8938 37.0962C69.7412 37.255 69.5577 37.3809 69.3546 37.4661C69.1515 37.5513 68.9331 37.594 68.7128 37.5916L60.4812 38.0179H60.4Z" fill="#093F68"/>
<path d="M55.802 52.9892L50.6052 52.2787C50.6052 52.2787 49.8338 58.9675 52.351 58.9878C54.31 58.998 55.0915 56.9781 55.802 52.9892Z" fill="#093F68"/>
<path d="M68.4489 86.7582C68.1797 86.7582 67.9216 86.6513 67.7312 86.4609C67.5409 86.2706 67.4339 86.0124 67.4339 85.7432V76.8011C67.4339 76.5319 67.5409 76.2737 67.7312 76.0834C67.9216 75.893 68.1797 75.7861 68.4489 75.7861C68.7181 75.7861 68.9763 75.893 69.1666 76.0834C69.357 76.2737 69.4639 76.5319 69.4639 76.8011V85.7432C69.4639 86.0124 69.357 86.2706 69.1666 86.4609C68.9763 86.6513 68.7181 86.7582 68.4489 86.7582Z" fill="#093F68"/>
<path d="M35.0757 84.4846C34.8065 84.4846 34.5484 84.3777 34.358 84.1874C34.1677 83.997 34.0607 83.7388 34.0607 83.4696V77.745C34.0607 77.4758 34.1677 77.2177 34.358 77.0273C34.5484 76.837 34.8065 76.73 35.0757 76.73C35.3449 76.73 35.6031 76.837 35.7934 77.0273C35.9838 77.2177 36.0907 77.4758 36.0907 77.745V83.4696C36.0907 83.7388 35.9838 83.997 35.7934 84.1874C35.6031 84.3777 35.3449 84.4846 35.0757 84.4846Z" fill="#093F68"/>
<path d="M35.2077 172.262V180.088H14.9889L23.657 172.049L35.2077 172.262Z" fill="#093F68"/>
<path d="M35.1975 181.102H14.9889C14.7856 181.102 14.5872 181.04 14.4194 180.925C14.2516 180.811 14.1221 180.648 14.0477 180.459C13.9734 180.27 13.9575 180.062 14.0023 179.864C14.047 179.666 14.1503 179.485 14.2987 179.347L22.9668 171.308C23.1651 171.137 23.416 171.041 23.6773 171.034L35.2178 171.247C35.487 171.247 35.7452 171.354 35.9356 171.544C36.1259 171.734 36.2328 171.993 36.2328 172.262V180.087C36.2329 180.223 36.206 180.356 36.1537 180.481C36.1014 180.605 36.0248 180.718 35.9284 180.812C35.832 180.907 35.7177 180.981 35.5922 181.031C35.4667 181.081 35.3325 181.105 35.1975 181.102V181.102ZM17.5771 179.072H34.1825V173.257L24.0325 173.074L17.5771 179.072Z" fill="#093F68"/>
<path d="M54.5028 172.262V180.088H74.7115L66.0535 172.049L54.5028 172.262Z" fill="#093F68"/>
<path d="M74.7115 181.102H54.5029C54.2337 181.102 53.9755 180.996 53.7851 180.805C53.5948 180.615 53.4879 180.357 53.4879 180.087V172.262C53.4879 171.993 53.5948 171.734 53.7851 171.544C53.9755 171.354 54.2337 171.247 54.5029 171.247L66.0536 171.034C66.3157 171.036 66.5681 171.134 66.7641 171.308L75.422 179.347C75.5704 179.485 75.6737 179.666 75.7184 179.864C75.7632 180.062 75.7473 180.27 75.673 180.459C75.5986 180.648 75.4691 180.811 75.3013 180.925C75.1335 181.04 74.9351 181.102 74.7318 181.102H74.7115ZM55.5179 179.072H72.1233L65.6577 173.074L55.5077 173.257L55.5179 179.072Z" fill="#093F68"/>
<path d="M12.5123 60.2159L11.3349 55.2424C11.3349 55.2424 13.5374 50.5125 11.9236 49.8731C10.3097 49.2336 5.25504 46.96 2.49424 50.2689C-0.266563 53.5778 3.99644 61.7993 3.99644 61.7993L12.5123 60.2159Z" fill="#FFC9B0"/>
<path d="M3.99644 62.8144C3.81005 62.8148 3.62716 62.7638 3.46782 62.6672C3.30847 62.5705 3.17882 62.4318 3.09309 62.2663C2.62619 61.3629 -1.39321 53.3444 1.71269 49.6194C4.81858 45.8943 10.0154 48.0258 11.9946 48.8074L12.289 48.9292C12.5173 49.0221 12.7248 49.1598 12.8991 49.3341C13.0734 49.5084 13.2111 49.7158 13.304 49.9442C13.9028 51.4464 12.8777 54.1158 12.36 55.2932L13.4664 59.9318C13.499 60.0667 13.5036 60.2068 13.4799 60.3436C13.4562 60.4803 13.4047 60.6108 13.3286 60.7268C13.2525 60.8429 13.1534 60.9421 13.0374 61.0183C12.9215 61.0946 12.7911 61.1462 12.6544 61.1701L4.13853 62.7433L3.99644 62.8144ZM6.54409 49.5382C5.92869 49.5044 5.31366 49.6111 4.74564 49.8502C4.17761 50.0894 3.67148 50.4548 3.26563 50.9186C1.55028 52.9486 3.43818 58.2164 4.56483 60.6626L11.2841 59.4141L10.3402 55.4759C10.2893 55.2543 10.3143 55.0219 10.4112 54.8162C11.1522 53.2125 11.6495 51.3145 11.4262 50.7562L11.1826 50.6648C9.71708 50.0126 8.14557 49.6309 6.54409 49.5382V49.5382Z" fill="#093F68"/>
<path d="M7.29518 50.9693C6.47092 51.082 5.67926 51.3655 4.97082 51.8016C4.64325 51.9944 4.35972 52.2537 4.13852 52.5628C4.02734 52.718 3.95386 52.897 3.9239 53.0855C3.89395 53.274 3.90836 53.4669 3.96598 53.6489C4.20958 54.2985 5.04187 54.4913 5.73207 54.4609C6.40794 54.4402 7.07473 54.2993 7.70118 54.0447C7.66251 54.638 7.85065 55.2238 8.22753 55.6836C8.6044 56.1434 9.14187 56.4428 9.73118 56.5213" fill="#FFC9B0"/>
<path d="M9.75149 57.5364H9.65C8.78316 57.4452 7.98766 57.0146 7.4373 56.3387C7.1941 56.0334 7.00214 55.6906 6.8689 55.3237C6.5044 55.3982 6.13434 55.4424 5.76254 55.4557C5.20426 55.5377 4.63441 55.4378 4.13724 55.171C3.64006 54.9041 3.24194 54.4843 3.00174 53.9738C2.88213 53.6381 2.84459 53.2786 2.89227 52.9255C2.93994 52.5723 3.07145 52.2357 3.2758 51.9438C3.58596 51.5279 3.98022 51.1821 4.4329 50.9288C5.25877 50.4041 6.18542 50.0584 7.1531 49.9138C7.42229 49.8774 7.69489 49.9495 7.91094 50.1141C8.12699 50.2788 8.26878 50.5225 8.30512 50.7917C8.34146 51.0609 8.26938 51.3335 8.10473 51.5496C7.94008 51.7656 7.69634 51.9074 7.42714 51.9438C6.7436 52.0384 6.08702 52.2734 5.49865 52.634C5.29738 52.75 5.1186 52.9013 4.97084 53.0805C4.9367 53.1396 4.91591 53.2054 4.90995 53.2734C5.1463 53.3991 5.41571 53.4487 5.68134 53.4155C6.24227 53.3987 6.79569 53.2819 7.31549 53.0704C7.48207 53.0019 7.66388 52.979 7.84225 53.0039C8.02062 53.0289 8.18913 53.1009 8.33049 53.2125C8.46939 53.3179 8.57878 53.4574 8.64811 53.6174C8.71745 53.7774 8.74439 53.9526 8.72634 54.126C8.71649 54.2884 8.73927 54.451 8.79331 54.6044C8.84735 54.7578 8.93157 54.8989 9.041 55.0192C9.2422 55.2727 9.53268 55.4397 9.85299 55.4861C10.1222 55.4969 10.3761 55.6141 10.5588 55.8121C10.7416 56.0101 10.8382 56.2725 10.8274 56.5417C10.8166 56.8109 10.6994 57.0648 10.5014 57.2475C10.3034 57.4303 10.041 57.5269 9.7718 57.5161L9.75149 57.5364Z" fill="#093F68"/>
<path d="M191.528 181.103H3.34685C3.07765 181.103 2.81948 180.996 2.62913 180.805C2.43878 180.615 2.33185 180.357 2.33185 180.088C2.33185 179.818 2.43878 179.56 2.62913 179.37C2.81948 179.179 3.07765 179.073 3.34685 179.073H191.528C191.797 179.073 192.055 179.179 192.246 179.37C192.436 179.56 192.543 179.818 192.543 180.088C192.543 180.357 192.436 180.615 192.246 180.805C192.055 180.996 191.797 181.103 191.528 181.103Z" fill="#093F68"/>
<path d="M84.1307 27.7157C83.9192 27.7143 83.7133 27.6469 83.542 27.5228C83.3248 27.366 83.1783 27.1298 83.1346 26.8655C83.0909 26.6012 83.1534 26.3304 83.3085 26.112C84.1408 24.9447 83.9277 23.067 82.6589 20.5701C80.321 15.9262 77.2809 11.6707 73.6457 7.95362C73.4694 7.77796 73.3638 7.54366 73.349 7.29524C73.3341 7.04682 73.411 6.80159 73.5651 6.60616C73.7192 6.41073 73.9397 6.27872 74.1847 6.23522C74.4298 6.19173 74.6822 6.23977 74.8942 6.37022L82.8924 11.161C84.0434 11.9944 85.3821 12.5312 86.79 12.7241C88.1501 12.7241 89.6218 12.0441 91.2966 10.5419C94.1633 7.96568 96.3169 4.69342 97.549 1.04147C97.6217 0.822389 97.7669 0.634624 97.9606 0.50915C98.1544 0.383676 98.3851 0.327988 98.6147 0.351273C98.8445 0.375157 99.0592 0.476681 99.2234 0.639076C99.3877 0.801471 99.4916 1.01503 99.5181 1.24447C99.6545 3.41713 100.155 5.55135 101 7.55777C101.388 8.45312 101.988 9.24063 102.749 9.85243C103.509 10.4642 104.407 10.882 105.364 11.0697C106.417 11.11 107.467 10.9516 108.46 10.6028C114.976 8.69228 120.909 5.17805 125.715 0.381721C125.884 0.213477 126.107 0.110082 126.345 0.0896664C126.582 0.0692512 126.819 0.133119 127.014 0.270071C127.209 0.407265 127.349 0.608493 127.41 0.838565C127.472 1.06864 127.45 1.31291 127.349 1.52867C124.304 8.05512 120.894 15.4545 120.681 23.0771C120.681 23.3463 120.574 23.6045 120.384 23.7948C120.193 23.9852 119.935 24.0921 119.666 24.0921C119.397 24.0921 119.138 23.9852 118.948 23.7948C118.758 23.6045 118.651 23.3463 118.651 23.0771C118.823 16.7435 121.056 10.684 123.513 5.12177C119.204 8.52734 114.279 11.0706 109.008 12.6125C107.767 13.0431 106.452 13.2225 105.141 13.1403C103.838 12.9285 102.608 12.3954 101.562 11.5891C100.517 10.7828 99.6887 9.72868 99.1527 8.52203C98.6366 7.43565 98.2548 6.29039 98.0159 5.11162C96.6595 7.75676 94.8293 10.1306 92.6161 12.1151C90.5861 13.9827 88.5561 14.8658 86.6986 14.8049C84.9406 14.6214 83.2593 13.9888 81.8165 12.9677L79.279 11.364C81.2615 13.9632 83.0011 16.7391 84.4758 19.6566C86.0998 22.8944 86.2622 25.4624 84.9528 27.2894C84.8594 27.4206 84.7362 27.5276 84.5932 27.6018C84.4503 27.6759 84.2917 27.7149 84.1307 27.7157Z" fill="#DFEAEF"/>
<path d="M99.7312 84.3222C99.6673 84.3321 99.6023 84.3321 99.5384 84.3222C99.3038 84.2769 99.0927 84.1502 98.9424 83.9645C98.792 83.7789 98.7119 83.5461 98.7162 83.3072C98.8682 79.9796 98.1288 76.6718 96.5746 73.7256C95.9148 72.4772 94.5446 70.3457 92.5146 70.1122C91.5134 70.0825 90.5182 70.2767 89.6015 70.6806C86.5258 71.8037 83.614 73.333 80.9436 75.2278C80.7471 75.3731 80.5048 75.4425 80.2612 75.4235C80.0175 75.4045 79.789 75.2982 79.6174 75.1242C79.4459 74.9501 79.3429 74.7201 79.3273 74.4762C79.3118 74.2324 79.3847 73.9911 79.5327 73.7967C81.5402 71.0229 82.6073 67.6795 82.5777 64.2557C82.5777 63.9865 82.6847 63.7283 82.875 63.5379C83.0654 63.3476 83.3236 63.2407 83.5927 63.2407C83.8619 63.2407 84.1201 63.3476 84.3105 63.5379C84.5008 63.7283 84.6077 63.9865 84.6077 64.2557C84.6201 66.6958 84.1367 69.113 83.1867 71.3607C85.0115 70.3365 86.9157 69.4608 88.8809 68.742C90.0897 68.2207 91.4032 67.9879 92.7176 68.0619C95.5088 68.3766 97.3358 70.7821 98.3711 72.7512C99.3512 74.6277 100.036 76.6442 100.401 78.7296C101.078 77.1259 101.839 75.556 102.685 74.02C103.086 73.1181 103.733 72.3477 104.552 71.7971C105.305 71.4179 106.136 71.223 106.978 71.2287C109.141 70.9832 111.33 71.0756 113.464 71.5028C114.653 71.7948 115.772 72.3229 116.753 73.0557C116.685 70.6213 116.8 68.1852 117.098 65.768C117.131 65.5018 117.268 65.2595 117.479 65.0941C117.69 64.9286 117.958 64.8534 118.225 64.885C118.491 64.918 118.733 65.055 118.898 65.2661C119.064 65.4772 119.139 65.7452 119.108 66.0116C118.702 69.3429 118.651 72.7079 118.955 76.05C118.969 76.2869 118.9 76.5212 118.759 76.7123C118.618 76.9033 118.415 77.039 118.185 77.0957C117.954 77.1524 117.711 77.1266 117.498 77.0227C117.284 76.9188 117.114 76.7434 117.017 76.527C116.615 75.7452 116.04 75.0649 115.337 74.5374C114.634 74.0099 113.82 73.6491 112.957 73.482C111.027 73.1123 109.052 73.037 107.1 73.2587C106.571 73.2555 106.046 73.359 105.557 73.5632C105.075 73.9384 104.698 74.4312 104.461 74.9944C102.968 77.7814 101.692 80.6794 100.645 83.6625C100.575 83.8504 100.451 84.0133 100.288 84.1307C100.125 84.2482 99.9316 84.3148 99.7312 84.3222Z" fill="#DFEAEF"/>
</svg>
