<svg width="202" height="37" viewBox="0 0 202 37" fill="none" xmlns="http://www.w3.org/2000/svg">
<path d="M31.342 6.25042C30.3878 4.94453 29.215 3.81343 27.8754 2.90709C26.8956 2.24306 25.834 1.70862 24.717 1.31709C23.1988 0.800831 21.6038 0.546648 20.0004 0.565422C18.8853 0.572264 17.7751 0.713278 16.6937 0.985422C15.3861 1.33472 14.1403 1.88398 13.0004 2.61376C11.8137 3.38499 10.752 4.33317 9.85204 5.42542C8.85842 6.62055 8.06994 7.97224 7.5187 9.42542C6.68053 11.7597 6.47468 14.2742 6.92204 16.7138C7.24848 18.5475 7.94792 20.2947 8.97704 21.8471C9.59237 22.7439 10.3206 23.5578 11.1437 24.2688C10.5189 23.4733 9.99228 22.6054 9.57537 21.6838C8.86643 20.0668 8.4841 18.3256 8.45037 16.5604C8.39942 14.3146 8.89714 12.0903 9.90037 10.0804C10.4865 8.92784 11.2297 7.86213 12.1087 6.91376C12.7421 6.22322 13.444 5.5989 14.2037 5.05042C15.2714 4.28335 16.4478 3.68003 17.6937 3.26042C18.7591 2.91322 19.865 2.70538 20.9837 2.64209C22.4543 2.52899 23.9336 2.64481 25.3687 2.98542C26.3762 3.24025 27.351 3.61048 28.2737 4.08876C29.3903 4.66596 30.4227 5.39326 31.342 6.25042Z" fill="#0C803A"/>
<path d="M4.06851 7.44531C2.9249 8.5891 1.98775 9.92208 1.29851 11.3853C0.794014 12.4557 0.42989 13.5867 0.215181 14.7503C-0.0621099 16.3283 -0.0677469 17.9421 0.198514 19.522C0.376543 20.6224 0.686557 21.6974 1.12185 22.7236C1.66829 23.962 2.40309 25.1084 3.30018 26.122C4.24415 27.1782 5.34476 28.0832 6.56351 28.8053C7.89709 29.6049 9.3541 30.1777 10.8752 30.5003C13.3108 30.9684 15.8269 30.7844 18.1685 29.967C19.9299 29.3618 21.5483 28.4014 22.9235 27.1453C23.7151 26.4 24.4075 25.5558 24.9835 24.6336C24.2919 25.3743 23.5142 26.0295 22.6668 26.5853C21.1791 27.536 19.5176 28.1823 17.7785 28.487C15.5671 28.8829 13.2925 28.7336 11.1518 28.052C9.02361 27.3532 7.09251 26.1574 5.51851 24.5636C4.59776 23.6279 3.82096 22.5608 3.21351 21.397C2.70652 20.3972 2.33064 19.3363 2.09518 18.2403C1.75808 16.8047 1.64563 15.3254 1.76185 13.8553C1.85879 12.8206 2.07466 11.8006 2.40518 10.8153C2.80326 9.62135 3.3629 8.48749 4.06851 7.44531Z" fill="#0C803A"/>
<path d="M6.57373 32.089C7.67487 33.2738 8.97154 34.2604 10.4071 35.0057C11.4575 35.551 12.5739 35.9583 13.7287 36.2174C15.2965 36.5535 16.9101 36.6205 18.5004 36.4157C19.6069 36.2789 20.693 36.0098 21.7354 35.614C22.9931 35.1145 24.1663 34.4242 25.2137 33.5674C27.509 31.6517 29.142 29.0611 29.8804 26.164C30.4408 23.7474 30.3528 21.2257 29.6254 18.854C29.0861 17.0719 28.1858 15.4198 26.9804 14.0007C26.2657 13.181 25.4484 12.4567 24.5487 11.8457C25.2611 12.5637 25.885 13.3644 26.4071 14.2307C27.3003 15.7541 27.8832 17.4393 28.1221 19.189C28.4338 21.4132 28.1981 23.6799 27.4354 25.7924C26.985 27.0058 26.3679 28.1506 25.6021 29.194C25.0501 29.9544 24.4218 30.6564 23.7271 31.289C22.7566 32.1753 21.6588 32.9112 20.4704 33.4724C19.4519 33.9423 18.3769 34.2784 17.2721 34.4724C15.825 34.7542 14.343 34.8105 12.8787 34.639C11.8484 34.5025 10.8372 34.2475 9.8654 33.879C8.69173 33.4352 7.58426 32.8329 6.57373 32.089Z" fill="#0C803A"/>
<path d="M30.3087 31.4344C31.6397 30.4623 32.7933 29.2682 33.7187 27.9044C34.3954 26.9064 34.9405 25.8252 35.3404 24.6877C35.8674 23.143 36.1267 21.5197 36.1071 19.8877C36.1014 18.7523 35.9575 17.6218 35.6787 16.5211C35.3208 15.1886 34.7585 13.9197 34.0121 12.7594C33.2248 11.5482 32.257 10.4646 31.1421 9.54606C29.5703 8.2149 27.7194 7.25414 25.7262 6.73485C23.733 6.21557 21.6486 6.15105 19.6271 6.54606C17.7573 6.87761 15.9755 7.58953 14.3921 8.63773C13.4769 9.26346 12.6461 10.0046 11.9204 10.8427C12.7321 10.2067 13.6174 9.67066 14.5571 9.24606C16.2072 8.52268 17.984 8.13243 19.7854 8.09773C22.0714 8.05304 24.3341 8.56403 26.379 9.58679C28.4239 10.6095 30.19 12.1135 31.5254 13.9694C32.3076 15.0568 32.9228 16.255 33.3504 17.5244C33.7046 18.6103 33.9169 19.7374 33.9821 20.8777C34.0974 22.3752 33.9793 23.8815 33.6321 25.3427C33.3726 26.3692 32.9945 27.362 32.5054 28.3011C31.9204 29.4413 31.1812 30.4956 30.3087 31.4344Z" fill="#0C803A"/>
<path d="M17.9553 22.2064C20.065 22.2064 21.7753 20.4961 21.7753 18.3864C21.7753 16.2767 20.065 14.5664 17.9553 14.5664C15.8455 14.5664 14.1353 16.2767 14.1353 18.3864C14.1353 20.4961 15.8455 22.2064 17.9553 22.2064Z" fill="#1C95C9"/>
<path d="M41.5234 26.009L47.8234 9.33398H52.2484L58.1484 26.009H54.0001L48.6668 10.284L50.6418 10.1173L45.3418 26.0173L41.5234 26.009ZM45.0734 22.409L45.8984 19.434H53.4734L53.8484 22.409H45.0734Z" fill="#1C95C9"/>
<path d="M60.1221 14.4337C60.5254 14.2323 60.9432 14.0612 61.3721 13.922C61.9298 13.7364 62.4973 13.5817 63.0721 13.4587C63.6887 13.3254 64.3104 13.2187 64.9354 13.1254C65.511 13.0463 66.0911 13.0046 66.6721 13.0004C67.6568 12.9773 68.6381 13.1257 69.5721 13.4387C70.3223 13.6938 70.967 14.1902 71.4054 14.8504C71.8298 15.5004 72.0421 16.3837 72.0421 17.5004V26.0004H68.3221V18.2504C68.3253 17.9531 68.2791 17.6575 68.1854 17.3754C68.0991 17.1192 67.9581 16.8849 67.7721 16.6887C67.562 16.4804 67.3047 16.326 67.0221 16.2387C66.6504 16.1208 66.2619 16.0645 65.8721 16.072C65.4846 16.0728 65.0986 16.1192 64.7221 16.2104C64.4209 16.2741 64.1276 16.3703 63.8471 16.497V25.997H60.1221V14.4337Z" fill="#1C95C9"/>
<path d="M80.1971 26.3842C79.1614 26.3489 78.1479 26.0752 77.2354 25.5842C76.3999 25.1075 75.7287 24.3887 75.3104 23.5225C74.8526 22.6147 74.6232 21.4686 74.6221 20.0842C74.621 18.6997 74.796 17.5375 75.1471 16.5975C75.4363 15.7594 75.9409 15.0121 76.6104 14.4308C77.2715 13.898 78.0448 13.5219 78.8721 13.3308C79.8386 13.1028 80.829 12.9908 81.8221 12.9975C82.7544 12.9807 83.6832 13.1158 84.5721 13.3975C85.2749 13.6102 85.908 14.0073 86.4054 14.5475C86.8438 15.0623 87.0755 15.7216 87.0554 16.3975V26.1675C87.0704 26.9658 86.9259 27.7591 86.6304 28.5008C86.3569 29.1631 85.9234 29.7472 85.3687 30.2008C84.7674 30.6795 84.075 31.031 83.3337 31.2342C82.4423 31.4806 81.5202 31.5985 80.5954 31.5842C79.6361 31.598 78.6777 31.5187 77.7337 31.3475C77.1033 31.243 76.4921 31.0447 75.9204 30.7592V27.4842C76.1704 27.5842 76.5371 27.7175 77.0204 27.8842C77.5507 28.0631 78.094 28.2013 78.6454 28.2975C79.2392 28.4067 79.8416 28.4625 80.4454 28.4642C81.2287 28.4642 81.8332 28.3558 82.2587 28.1392C82.6468 27.9591 82.9602 27.6498 83.1454 27.2642C83.3176 26.8703 83.4029 26.444 83.3954 26.0142V23.9642L84.1204 24.4892C83.8573 24.8696 83.5368 25.2069 83.1704 25.4892C82.784 25.7853 82.3485 26.0109 81.8837 26.1558C81.3367 26.3189 80.7677 26.3959 80.1971 26.3842ZM81.1471 23.5842C81.5512 23.5878 81.9542 23.5419 82.3471 23.4475C82.7137 23.3564 83.0667 23.2174 83.3971 23.0342V17.2342C83.407 17.0871 83.3854 16.9397 83.3336 16.8017C83.2819 16.6637 83.2012 16.5384 83.0971 16.4342C82.8849 16.2446 82.626 16.1152 82.3471 16.0592C82.0349 15.992 81.7164 15.9585 81.3971 15.9592C80.6304 15.9592 80.0265 16.1258 79.5854 16.4592C79.1314 16.8113 78.7992 17.2968 78.6354 17.8475C78.4346 18.4988 78.3373 19.1776 78.3471 19.8592C78.3471 21.0092 78.6054 21.9175 79.1221 22.5842C79.3541 22.9016 79.6594 23.1583 80.012 23.3324C80.3646 23.5065 80.754 23.5928 81.1471 23.5842Z" fill="#1C95C9"/>
<path d="M95.0467 26.3832C94.3191 26.3879 93.5929 26.3169 92.88 26.1716C92.2507 26.0481 91.6492 25.8109 91.105 25.4716C90.595 25.1435 90.1841 24.6825 89.9167 24.1382C89.6171 23.487 89.4744 22.7746 89.5 22.0583C89.4836 21.3443 89.6518 20.6382 89.9883 20.0082C90.328 19.4119 90.8487 18.9391 91.475 18.6582C92.1416 18.3432 92.975 18.1832 94 18.1832C94.5546 18.1828 95.1078 18.2415 95.65 18.3582C96.1457 18.4623 96.6281 18.6216 97.0883 18.8332C97.4569 18.9967 97.7981 19.2159 98.1 19.4832L98.25 21.2832C97.8752 21.0675 97.4709 20.9075 97.05 20.8082C96.5585 20.6923 96.0549 20.6364 95.55 20.6416C94.7333 20.6416 94.1378 20.7627 93.7633 21.0049C93.3883 21.2466 93.2 21.6266 93.2 22.1416C93.1965 22.4473 93.2931 22.7458 93.475 22.9916C93.6642 23.2468 93.9195 23.4456 94.2133 23.5666C94.5164 23.6997 94.844 23.7679 95.175 23.7666C96.025 23.7666 96.6211 23.7083 96.9633 23.5916C97.1166 23.5524 97.2514 23.4611 97.3448 23.3334C97.4381 23.2057 97.4842 23.0495 97.475 22.8916V18.2332C97.475 17.4677 97.2294 16.9121 96.7383 16.5666C96.2472 16.221 95.5511 16.0499 94.65 16.0533C93.8962 16.0571 93.1484 16.1884 92.4383 16.4416C91.7869 16.6531 91.1744 16.9694 90.625 17.3782V14.0832C91.0583 13.8177 91.7294 13.5677 92.6383 13.3332C93.6402 13.0889 94.6688 12.9713 95.7 12.9832C96.1462 12.9869 96.5916 13.0203 97.0333 13.0832C97.5281 13.153 98.0141 13.2748 98.4833 13.4466C98.9677 13.6232 99.4185 13.8808 99.8167 14.2082C100.235 14.5561 100.571 14.9913 100.803 15.4832C101.067 16.0895 101.191 16.7475 101.167 17.4082L101.142 23.3832C101.154 23.7082 101.095 24.032 100.97 24.3321C100.845 24.6323 100.656 24.9016 100.417 25.1216C99.9333 25.566 99.2378 25.8866 98.33 26.0832C97.2493 26.2995 96.1486 26.4001 95.0467 26.3832Z" fill="#1C95C9"/>
<path d="M103.947 26.0089V23.0589L110.722 15.3922L111.097 16.1672H104.097V13.3672H114V16.2672L107.7 23.9922L107.575 23.0422H114V26.0172L103.947 26.0089Z" fill="#1C95C9"/>
<path d="M121.647 26.3832C120.919 26.3878 120.193 26.3168 119.48 26.1716C118.851 26.0481 118.249 25.8109 117.705 25.4716C117.195 25.1437 116.785 24.6826 116.518 24.1382C116.215 23.4852 116.069 22.7697 116.093 22.0499C116.077 21.3361 116.244 20.63 116.58 19.9999C116.921 19.4035 117.442 18.9307 118.068 18.6499C118.735 18.3349 119.577 18.1749 120.593 18.1749C121.148 18.1745 121.701 18.2331 122.243 18.3499C122.74 18.4564 123.223 18.6185 123.683 18.8332C124.053 18.9967 124.394 19.2159 124.697 19.4832L124.847 21.2832C124.472 21.0675 124.068 20.9075 123.647 20.8082C123.155 20.6923 122.652 20.6364 122.147 20.6416C121.33 20.6416 120.734 20.7627 120.358 21.0049C119.983 21.2466 119.797 21.6266 119.797 22.1416C119.793 22.4473 119.89 22.7458 120.072 22.9916C120.26 23.2468 120.515 23.4456 120.808 23.5666C121.112 23.6997 121.44 23.7678 121.772 23.7666C122.622 23.7666 123.217 23.7082 123.558 23.5916C123.712 23.5524 123.847 23.4612 123.941 23.3336C124.034 23.2059 124.081 23.0497 124.072 22.8916V18.2332C124.072 17.4677 123.826 16.9121 123.333 16.5666C122.841 16.221 122.146 16.0499 121.247 16.0532C120.492 16.0571 119.744 16.1884 119.033 16.4416C118.383 16.653 117.771 16.9694 117.222 17.3782V14.0832C117.655 13.8177 118.326 13.5677 119.233 13.3332C120.236 13.0889 121.265 12.9713 122.297 12.9832C122.743 12.9869 123.188 13.0203 123.63 13.0832C124.125 13.153 124.611 13.2748 125.08 13.4466C125.564 13.6231 126.015 13.8806 126.413 14.2082C126.832 14.556 127.169 14.9912 127.402 15.4832C127.67 16.0886 127.798 16.7466 127.777 17.4082L127.752 23.3832C127.764 23.7082 127.706 24.032 127.58 24.3321C127.455 24.6323 127.266 24.9016 127.027 25.1216C126.543 25.566 125.847 25.8866 124.938 26.0832C123.855 26.3003 122.752 26.4009 121.647 26.3832Z" fill="#1C95C9"/>
<path d="M138.097 26.009V9.33398H149.522V12.459H142.147V16.084H148.547V19.234H142.147V22.884H149.522V26.009H138.097Z" fill="#1C95C9"/>
<path d="M156.5 26.009H152.8V8.58398H156.5V26.009Z" fill="#1C95C9"/>
<path d="M159.795 11.6328V8.75781H163.645V11.6328H159.795ZM159.87 26.0078V13.5328H163.595L163.62 26.0078H159.87Z" fill="#1C95C9"/>
<path d="M178.695 17.5092V26.0092H174.97V18.2592C174.974 17.9619 174.927 17.6663 174.834 17.3842C174.747 17.128 174.606 16.8937 174.42 16.6975C174.21 16.4892 173.953 16.3348 173.67 16.2475C173.299 16.1296 172.91 16.0733 172.52 16.0808C172.162 16.0779 171.804 16.1244 171.459 16.2192C171.188 16.2905 170.924 16.3865 170.67 16.5058V26.0058H166.945V14.4342C167.349 14.2327 167.766 14.0617 168.195 13.9225C168.753 13.7368 169.321 13.5822 169.895 13.4592C170.512 13.3258 171.134 13.2192 171.759 13.1258C172.334 13.0468 172.914 13.0051 173.495 13.0008C174.468 12.9754 175.438 13.1239 176.359 13.4392C177.088 13.6929 177.706 14.1918 178.109 14.8508C178.501 15.5064 178.696 16.3925 178.695 17.5092ZM174.862 15.2842C175.428 14.8028 176.06 14.4033 176.737 14.0975C177.485 13.7511 178.267 13.483 179.07 13.2975C179.815 13.1145 180.578 13.0177 181.345 13.0092C182.318 12.9837 183.288 13.1322 184.209 13.4475C184.938 13.7012 185.556 14.2001 185.959 14.8592C186.35 15.5092 186.545 16.3925 186.545 17.5092V26.0092H182.82V18.2592C182.824 17.9619 182.777 17.6663 182.684 17.3842C182.597 17.128 182.456 16.8937 182.27 16.6975C182.06 16.4892 181.803 16.3348 181.52 16.2475C181.149 16.1296 180.76 16.0733 180.37 16.0808C180.01 16.0786 179.651 16.1349 179.309 16.2475C179.023 16.3354 178.756 16.4749 178.52 16.6592L174.862 15.2842Z" fill="#1C95C9"/>
<path d="M195.795 26.3844C194.736 26.4038 193.683 26.217 192.695 25.8344C191.838 25.503 191.104 24.9137 190.595 24.1477C190.095 23.3899 189.845 22.4022 189.845 21.1844V13.3594H193.57V20.8844C193.57 21.6844 193.75 22.2805 194.109 22.6727C194.467 23.0649 195.038 23.2605 195.82 23.2594C196.62 23.2594 197.195 23.0638 197.545 22.6727C197.895 22.2816 198.07 21.6855 198.07 20.8844V13.3594H201.57V21.1844C201.57 22.9844 201.054 24.301 200.02 25.1344C198.987 25.9677 197.579 26.3844 195.795 26.3844Z" fill="#1C95C9"/>
</svg>
