<svg width="190" height="31" viewBox="0 0 190 31" fill="none" xmlns="http://www.w3.org/2000/svg">
<path d="M38.9157 21.6413L38.9029 16.4285C38.8943 13.0485 38.8943 13.0585 38.8943 13.0471C38.8943 12.7613 38.8943 12.7413 38.8943 12.6728C38.9914 11.0256 40.3871 9.92991 40.6571 9.71848C41.5629 9.0042 42.6 8.74134 43.7029 8.59706C45.04 8.42134 47.6614 8.28277 51.08 8.4542C51.0914 10.9799 51.1086 13.5137 51.1314 16.0556C51.1486 17.8842 51.1681 19.7085 51.19 21.5285" stroke="#1A8EBE" stroke-width="2.8" stroke-miterlimit="10"/>
<path d="M38.9028 16.7028L51.0885 16.5499" stroke="#1A8EBE" stroke-width="2.8" stroke-miterlimit="10"/>
<path d="M56.5527 21.4814V11.9871C60.8556 11.6571 64.0799 11.8928 64.9456 12.4914C65.2155 12.6813 65.4537 12.9127 65.6513 13.1771C65.9913 13.6831 66.1669 14.2818 66.1542 14.8914C66.1542 17.1142 66.1494 19.3375 66.1399 21.5614" stroke="#1A8EBE" stroke-width="2.8" stroke-miterlimit="10"/>
<path d="M188.499 10.7142V20.2085C184.196 20.5385 180.971 20.3028 180.106 19.7042C179.836 19.5143 179.598 19.2828 179.4 19.0185C179.06 18.5124 178.884 17.9138 178.897 17.3042C178.897 15.0814 178.902 12.858 178.911 10.6342" stroke="#1A8EBE" stroke-width="2.8" stroke-miterlimit="10"/>
<path d="M78.1428 20.0771C76.1813 20.0914 74.4713 20.0871 73.0756 20.0771C72.7396 20.0799 72.4067 20.0123 72.0985 19.8785C71.8031 19.7536 71.5434 19.5572 71.3428 19.3071C71.1825 19.0952 71.0691 18.8517 71.0099 18.5928C70.8285 17.8599 70.2028 15.3356 70.9385 13.8271C71.0652 13.5735 71.2184 13.334 71.3956 13.1128C71.6122 12.8626 71.8583 12.6395 72.1285 12.4485C73.4071 11.5642 77.9856 11.3942 79.4385 12.2299C79.7405 12.4051 80.0012 12.6434 80.2028 12.9285C80.3469 13.1565 80.4441 13.411 80.4885 13.6771C80.8185 15.3914 80.5856 20.0256 80.5813 21.7671C80.5786 22.1269 80.5418 22.4856 80.4713 22.8385C80.3599 23.3942 80.1628 24.3785 79.4513 24.8814C79.084 25.1195 78.6515 25.2368 78.2142 25.2171C77.0199 25.2299 75.347 25.2642 73.2842 25.2771" stroke="#1A8EBE" stroke-width="2.8" stroke-miterlimit="10"/>
<path d="M112.589 11.4828L118.569 11.4971C118.746 11.5099 118.921 11.541 119.091 11.5899C119.269 11.6381 119.441 11.7072 119.603 11.7956C119.855 11.9392 120.078 12.1292 120.26 12.3556C120.488 12.6454 120.647 12.9836 120.724 13.3442C120.979 14.4428 120.983 15.7228 120.739 18.1756C120.713 18.5509 120.596 18.9143 120.399 19.2342C120.229 19.5066 119.993 19.7316 119.713 19.8885C119.412 20.0439 119.077 20.1183 118.739 20.1042C116.864 20.0914 114.99 20.1585 113.119 20.0899C112.499 20.0671 112.019 19.8314 111.709 19.4056C111.511 19.1342 111.431 18.8014 111.469 17.8599C111.507 16.8956 111.531 16.4056 111.817 16.0028C111.957 15.8033 112.136 15.6349 112.344 15.5085C112.721 15.2828 113.1 15.2685 113.84 15.2485C114.112 15.2363 114.385 15.2401 114.657 15.2599C115.243 15.3042 116.324 15.3314 118.503 15.2599" stroke="#1A8EBE" stroke-width="2.8" stroke-miterlimit="10"/>
<path d="M86.2387 11.4828L92.2187 11.4971C92.3957 11.5099 92.5709 11.541 92.7416 11.5899C92.9195 11.6381 93.0912 11.7072 93.253 11.7956C93.5054 11.9392 93.7283 12.1292 93.9101 12.3556C94.1384 12.6454 94.2972 12.9836 94.3744 13.3442C94.6301 14.4428 94.633 15.7228 94.3887 18.1756C94.3632 18.5509 94.2465 18.9143 94.0487 19.2342C93.8789 19.5066 93.643 19.7316 93.363 19.8885C93.0625 20.0439 92.7267 20.1183 92.3887 20.1042C90.5144 20.0914 88.6401 20.1585 86.7687 20.0899C86.1487 20.0671 85.6687 19.8314 85.3587 19.4056C85.1616 19.1342 85.0816 18.8014 85.1187 17.8599C85.1573 16.8956 85.1816 16.4056 85.4673 16.0028C85.6068 15.8033 85.7863 15.6349 85.9944 15.5085C86.3716 15.2828 86.7501 15.2685 87.4901 15.2485C87.7625 15.2363 88.0354 15.2401 88.3073 15.2599C88.893 15.3042 89.9744 15.3314 92.1544 15.2599" stroke="#1A8EBE" stroke-width="2.8" stroke-miterlimit="10"/>
<path d="M97.7144 11.3142L106.04 11.2999C106.612 11.3285 106.807 11.4856 106.88 11.6356C107.574 13.0642 98.5272 18.0642 99.2929 19.8628C99.4358 20.2056 99.9072 20.3442 100.324 20.4042L108.429 20.3585" stroke="#1A8EBE" stroke-width="2.8" stroke-miterlimit="10"/>
<path d="M144.811 8.01709L132.811 8.04852L132.756 17.6057C132.81 18.1399 132.996 19.1357 133.773 19.7871C134.55 20.4385 135.571 20.4171 136.086 20.4042C138.127 20.3528 141.086 20.3757 144.87 20.3971" stroke="#1A8EBE" stroke-width="2.8" stroke-miterlimit="10"/>
<path d="M143.437 14.1228L135.333 14.0856" stroke="#1A8EBE" stroke-width="2.8" stroke-miterlimit="10"/>
<path d="M148.796 5.59137C148.672 12.4971 148.632 17.5314 148.653 18.3671C148.647 18.7587 148.763 19.1426 148.984 19.4657C149.214 19.7494 149.517 19.9652 149.86 20.0899C150.244 20.252 150.658 20.3262 151.074 20.3071L152.11 20.2557" stroke="#1A8EBE" stroke-width="2.8" stroke-miterlimit="10"/>
<path d="M155.1 21.5714C155.12 17.8476 155.141 14.1228 155.162 10.3971" stroke="#1A8EBE" stroke-width="2.8" stroke-miterlimit="10"/>
<path d="M155.221 5.69708C155.231 6.50184 155.241 7.30613 155.253 8.10994" stroke="#1A8EBE" stroke-width="2.8" stroke-miterlimit="10"/>
<path d="M160.229 21.5114C160.229 18.3409 160.229 15.1714 160.229 12.0028C160.371 11.9828 163.583 11.5571 165.197 11.9785C165.622 12.0765 166.022 12.2613 166.371 12.5214C166.705 12.7767 166.983 13.097 167.189 13.4628C167.531 14.0476 167.713 14.7124 167.716 15.3899C167.699 17.4204 167.684 19.4509 167.67 21.4814" stroke="#1A8EBE" stroke-width="2.8" stroke-miterlimit="10"/>
<path d="M166.334 12.3228C168.609 11.7971 170.444 11.7328 171.39 11.9785C171.811 12.0875 172.209 12.2714 172.564 12.5214C172.897 12.7767 173.175 13.0969 173.381 13.4628C173.724 14.0476 173.906 14.7123 173.909 15.3899C173.933 17.7314 173.871 21.2756 173.863 21.4813" stroke="#1A8EBE" stroke-width="2.8" stroke-miterlimit="10"/>
<path d="M27.5828 5.03282C26.7646 3.91465 25.7599 2.94573 24.6128 2.16854C23.7726 1.59964 22.8628 1.14112 21.9057 0.804253C20.6052 0.362281 19.2391 0.144891 17.8657 0.161396C16.9103 0.165649 15.9589 0.286544 15.0328 0.521396C13.9119 0.819828 12.844 1.29017 11.8671 1.91568C10.848 2.5769 9.93601 3.39012 9.16281 4.32711C8.3114 5.35169 7.63559 6.51023 7.16281 7.75568C6.4443 9.75541 6.26592 11.9093 6.64567 14C6.92394 15.5719 7.52306 17.0697 8.40567 18.4C8.93303 19.1687 9.55721 19.8664 10.2628 20.4757C9.72752 19.7942 9.27619 19.0507 8.91853 18.2614C8.31019 16.8751 7.98199 15.3822 7.95281 13.8685C7.90914 11.9436 8.33576 10.037 9.19567 8.31425C10.0685 6.60334 11.3358 5.12456 12.8928 3.99997C13.8082 3.34421 14.8165 2.82899 15.8842 2.4714C16.7979 2.17381 17.7463 1.99567 18.7057 1.9414C19.9653 1.84103 21.2329 1.93742 22.4628 2.22711C23.3265 2.44601 24.162 2.76382 24.9528 3.17425C25.9102 3.67078 26.7951 4.29612 27.5828 5.03282Z" fill="#0FA24A"/>
<path d="M4.20564 6.05713C3.22721 7.03656 2.42455 8.177 1.83278 9.42856C1.3996 10.3458 1.08701 11.3153 0.902779 12.3128C0.665882 13.6655 0.661052 15.0486 0.888493 16.4028C1.0403 17.3464 1.30655 18.268 1.68135 19.1471C2.14869 20.2093 2.77809 21.1924 3.54707 22.0614C5.09592 23.8258 7.13953 25.0837 9.41247 25.6716C11.6854 26.2596 14.0826 26.1505 16.2928 25.3586C17.8022 24.8406 19.189 24.0179 20.3671 22.9414C21.0457 22.3026 21.6392 21.5791 22.1328 20.7886C21.5419 21.4225 20.8766 21.9827 20.1514 22.4571C18.8754 23.272 17.451 23.8264 15.9599 24.0886C14.0667 24.4282 12.1193 24.3022 10.2856 23.7214C8.46144 23.1225 6.8062 22.0975 5.45706 20.7314C4.667 19.9301 4.00108 19.0152 3.48135 18.0171C3.04592 17.1606 2.72369 16.251 2.52278 15.3114C2.23306 14.081 2.13666 12.8129 2.23706 11.5528C2.31956 10.6659 2.50461 9.79147 2.78849 8.94713C3.12695 7.92371 3.60375 6.95137 4.20564 6.05713Z" fill="#0FA24A"/>
<path d="M6.35425 27.18C7.29671 28.197 8.40842 29.0429 9.63996 29.68C10.5399 30.1462 11.4964 30.4939 12.4857 30.7143C13.8279 31.0037 15.2098 31.0611 16.5714 30.8843C17.5202 30.7688 18.4513 30.538 19.3442 30.1971C20.4226 29.7696 21.4283 29.1779 22.3257 28.4429C23.262 27.6668 24.0734 26.7514 24.7314 25.7286C25.6885 24.287 26.309 22.6485 26.5469 20.9345C26.7848 19.2205 26.634 17.4749 26.1057 15.8271C25.6454 14.299 24.8762 12.8816 23.8457 11.6629C23.2332 10.9606 22.5326 10.3402 21.7614 9.81714C22.3724 10.4317 22.9071 11.1176 23.3542 11.86C24.119 13.1662 24.6185 14.6104 24.8243 16.11C25.09 18.0169 24.888 19.9599 24.2357 21.7714C23.8484 22.8109 23.3196 23.7921 22.6642 24.6871C22.1907 25.3386 21.6522 25.9403 21.0571 26.4829C20.2244 27.2421 19.2831 27.8728 18.2642 28.3543C17.3915 28.7564 16.4706 29.0445 15.5242 29.2114C14.2835 29.4538 13.0126 29.502 11.7571 29.3543C10.8768 29.2407 10.0125 29.0259 9.18139 28.7143C8.17343 28.3342 7.22223 27.818 6.35425 27.18Z" fill="#0FA24A"/>
<path d="M26.6972 26.62C27.838 25.7868 28.8267 24.7632 29.62 23.5943C30.2008 22.7385 30.6684 21.8113 31.0114 20.8357C31.4625 19.5116 31.6843 18.1202 31.6672 16.7214C31.6621 15.7483 31.5393 14.7793 31.3014 13.8357C30.9947 12.6936 30.5128 11.6059 29.8729 10.6114C29.2 9.57354 28.3723 8.6447 27.4186 7.85712C26.0711 6.71648 24.4846 5.8932 22.7762 5.44812C21.0679 5.00304 19.2813 4.94753 17.5486 5.28569C15.9457 5.56977 14.4183 6.18052 13.0614 7.07998C12.2768 7.61549 11.5646 8.25028 10.9429 8.96855C11.6388 8.4236 12.3975 7.96413 13.2029 7.59998C14.6171 6.97953 16.1402 6.64547 17.6843 6.61712C19.6476 6.5733 21.592 7.00769 23.35 7.88284C24.3572 8.39531 25.2888 9.04428 26.1186 9.81141C26.7225 10.3673 27.2682 10.9834 27.7472 11.65C28.4198 12.5817 28.9495 13.6088 29.3186 14.6971C29.6213 15.628 29.8023 16.5941 29.8572 17.5714C29.956 18.855 29.8548 20.1461 29.5572 21.3985C29.3337 22.2785 29.0096 23.1298 28.5914 23.9357C28.0855 24.9127 27.4481 25.8159 26.6972 26.62Z" fill="#0FA24A"/>
<path d="M16.11 18.71C17.9183 18.71 19.3843 17.244 19.3843 15.4357C19.3843 13.6273 17.9183 12.1614 16.11 12.1614C14.3016 12.1614 12.8357 13.6273 12.8357 15.4357C12.8357 17.244 14.3016 18.71 16.11 18.71Z" fill="#1A8EBE"/>
</svg>
