<svg width="64" height="64" viewBox="0 0 64 64" fill="none" xmlns="http://www.w3.org/2000/svg">
<path d="M53.4618 12.1341C51.921 10.0272 50.0283 8.20182 47.8671 6.73816C46.2849 5.66694 44.5713 4.80417 42.7685 4.17119C40.3203 3.33804 37.748 2.92804 35.1621 2.95876C33.3614 2.96777 31.5686 3.19533 29.8228 3.63644C27.712 4.19972 25.7011 5.08642 23.8617 6.26501C21.9423 7.50925 20.2248 9.04006 18.7688 10.8042C17.161 12.7315 15.8842 14.9122 14.9902 17.2574C14.5688 18.3918 12.9366 23.0649 14.0275 29.0235C14.8613 33.5857 16.8705 36.6152 17.3436 37.3076C18.3357 38.7556 19.5102 40.0697 20.838 41.2176C19.8299 39.9337 18.98 38.5333 18.3063 37.0464C17.9326 36.2192 16.5879 33.0994 16.4877 28.7738C16.4466 26.9667 16.5698 22.7905 18.8296 18.3154C20.4721 15.0941 22.8595 12.3112 25.7937 10.198C27.5184 8.95997 29.4182 7.98625 31.4303 7.30905C33.773 6.5369 35.6598 6.38823 36.7425 6.31101C40.4184 6.04651 43.1669 6.70037 43.8199 6.86301C45.4461 7.27548 47.0194 7.87386 48.5086 8.64633C50.3109 9.57779 51.9774 10.7512 53.4618 12.1341Z" fill="#0FA24A"/>
<path d="M9.43716 14.0629C7.59248 15.9097 6.08048 18.0611 4.96777 20.4224C4.15255 22.1504 3.56392 23.9765 3.21648 25.8553C2.77017 28.4027 2.76129 31.0075 3.1902 33.5578C3.47655 35.3354 3.97744 37.0718 4.68191 38.7287C5.56294 40.7278 6.74835 42.5782 8.19598 44.2142C9.72117 45.9185 11.4982 47.3792 13.4655 48.5456C15.6172 49.838 17.9686 50.764 20.4238 51.2859C21.6091 51.5282 26.4785 52.4179 32.1981 50.4242C36.578 48.898 39.2624 46.4469 39.8719 45.8719C41.1504 44.6693 42.2681 43.3065 43.1971 41.8173C42.0838 43.0113 40.8309 44.0671 39.4653 44.9617C38.7063 45.4546 35.8313 47.2675 31.5722 48.0322C29.7905 48.3526 25.6472 48.8701 20.878 47.3299C18.8945 46.6807 17.0104 45.7601 15.2792 44.5946C14.0193 43.7503 12.8485 42.7801 11.7848 41.699C10.2963 40.1864 9.0419 38.4602 8.06291 36.5774C6.9392 34.3817 6.5022 32.5401 6.25577 31.4846C5.42859 27.8941 5.6512 25.0774 5.71198 24.4063C5.86905 22.7342 6.21884 21.0859 6.75438 19.4942C7.39674 17.5698 8.29937 15.7425 9.43716 14.0629Z" fill="#0FA24A"/>
<path d="M13.4819 53.843C15.2574 55.7564 17.3496 57.3492 19.6665 58.5514C21.3625 59.4316 23.1651 60.089 25.0296 60.5073C27.5579 61.05 30.1603 61.1576 32.7247 60.8252C34.5112 60.6065 36.2646 60.1721 37.9466 59.5314C39.9778 58.7259 41.872 57.6106 43.5618 56.2252C47.2665 53.1326 49.9017 48.9507 51.0927 44.2742C51.3802 43.0987 52.4538 38.2679 50.682 32.476C49.3234 28.0403 46.9757 25.2671 46.4245 24.6346C45.2709 23.3117 43.9515 22.143 42.4989 21.1575C43.6488 22.3173 44.6551 23.611 45.4963 25.0109C45.9637 25.7887 47.6624 28.7311 48.2653 33.0157C48.5175 34.808 48.8773 38.9678 47.1572 43.6754C45.9002 47.0654 43.8526 50.1067 41.1846 52.5468C39.6173 53.9764 37.8454 55.1641 35.9275 56.0707C33.6907 57.1107 31.8343 57.477 30.7673 57.6807C27.148 58.3716 24.342 58.0413 23.6734 57.9559C22.0106 57.7352 20.3786 57.324 18.8097 56.7303C16.9102 56.0158 15.1176 55.0444 13.4819 53.843Z" fill="#0FA24A"/>
<path d="M51.7936 52.7866C53.9419 51.2173 55.8037 49.2894 57.2971 47.0876C58.3904 45.4767 59.2706 43.7312 59.9158 41.8945C60.7664 39.4012 61.1847 36.7809 61.1529 34.1468C61.1437 32.3137 60.9117 30.4885 60.4621 28.7114C59.8873 26.5611 58.9828 24.5128 57.7809 22.6394C56.5115 20.6846 54.9502 18.9358 53.1514 17.4537C51.185 15.815 48.9602 14.5142 46.5676 13.6045C45.4102 13.174 40.6427 11.5147 34.5641 12.6237C29.909 13.4722 26.8188 15.5184 26.1124 16.0014C24.6355 17.0113 23.2948 18.2073 22.1235 19.5598C23.4336 18.5328 24.8625 17.6671 26.3794 16.9814C27.223 16.6002 30.4044 15.2309 34.8187 15.1299C36.6645 15.0871 40.9228 15.212 45.4883 17.512C47.3856 18.4781 49.1398 19.7024 50.7011 21.1501C51.8385 22.1972 52.8665 23.3573 53.7691 24.6124C55.0318 26.3675 56.0252 28.3014 56.7164 30.3501C57.5041 32.7364 57.6553 34.6585 57.7349 35.7609C58.0044 39.5049 57.3374 42.3044 57.1706 42.9697C56.7504 44.6264 56.1401 46.2289 55.352 47.7455C54.4011 49.5802 53.2039 51.2763 51.7936 52.7866Z" fill="#0FA24A"/>
<path d="M31.8541 37.8909C35.2593 37.8909 38.0198 35.1304 38.0198 31.7252C38.0198 28.32 35.2593 25.5596 31.8541 25.5596C28.4489 25.5596 25.6885 28.32 25.6885 31.7252C25.6885 35.1304 28.4489 37.8909 31.8541 37.8909Z" fill="#1A8EBE"/>
</svg>
